<?xml version="1.0" standalone="no"?>
<!DOCTYPE svg PUBLIC "-//W3C//DTD SVG 20010904//EN"
 "http://www.w3.org/TR/2001/REC-SVG-20010904/DTD/svg10.dtd">
<svg version="1.0" xmlns="http://www.w3.org/2000/svg"
 width="1100.000000pt" height="499.000000pt" viewBox="0 0 1100.000000 499.000000"
 preserveAspectRatio="xMidYMid meet">

<g transform="translate(0.000000,499.000000) scale(0.100000,-0.100000)"
fill="#000000" stroke="none">
<path d="M0 2495 l0 -2495 4812 0 c2681 0 4808 4 4802 9 -5 4 -83 59 -174 121
-313 214 -290 195 -278 233 6 17 14 36 18 40 4 4 56 -25 116 -66 60 -40 174
-118 254 -172 156 -105 173 -121 160 -146 -8 -14 6 -16 128 -17 l137 -2 -32
21 c-18 12 -33 25 -33 31 0 5 -5 6 -10 3 -21 -13 -9 13 19 39 20 19 36 26 47
22 14 -5 15 -4 4 9 -11 13 -9 20 10 40 13 14 28 25 33 25 5 0 77 -43 159 -95
l148 -95 239 0 239 0 10 28 c21 53 27 57 57 38 15 -10 24 -21 19 -25 -5 -3
-15 -14 -23 -23 -12 -16 -11 -18 12 -18 19 0 35 15 76 74 l51 75 -2 197 -3
196 -70 40 c-148 84 -194 110 -332 185 -78 43 -143 82 -143 87 0 9 92 119 167
199 25 26 49 44 55 41 6 -4 8 -2 4 4 -3 6 3 31 15 55 19 38 26 44 51 43 23 -1
31 -6 35 -27 4 -24 9 -25 59 -25 60 0 71 11 22 21 -18 4 -45 17 -61 29 -17 12
-39 20 -54 18 -21 -3 -25 0 -20 15 19 61 20 66 9 59 -17 -11 -15 5 5 26 19 22
10 36 -12 18 -18 -15 -19 -11 -4 26 10 28 10 28 -11 9 -21 -19 -23 -18 -283
114 -144 74 -266 137 -270 141 -12 11 11 90 26 86 6 -1 9 -1 5 1 -5 3 -8 13
-8 24 0 22 8 27 -89 -65 -51 -49 -67 -46 -40 7 11 20 10 20 -16 -3 -27 -24
-28 -25 -23 -3 l6 22 -28 -20 c-15 -12 -33 -39 -40 -62 -8 -26 -14 -36 -20
-28 -5 9 -10 4 -14 -14 -4 -15 -10 -25 -13 -22 -3 3 -1 20 5 36 6 17 8 31 3
31 -4 0 -13 -22 -20 -49 -7 -27 -23 -59 -37 -72 -28 -26 -29 -25 -9 30 8 22
12 41 10 41 -10 0 -113 -106 -124 -128 -7 -13 -22 -58 -35 -100 -14 -49 -27
-76 -35 -74 -7 1 -10 -2 -6 -8 3 -5 -1 -20 -9 -32 -13 -18 -16 -19 -16 -5 0
21 29 97 45 117 14 18 27 50 19 50 -2 0 -9 -10 -14 -22 -8 -19 -9 -16 -4 12
l6 35 -31 -30 c-25 -23 -35 -27 -49 -19 -34 22 -379 212 -430 238 -46 23 -68
46 -44 46 5 0 21 12 38 28 16 15 56 47 89 72 33 24 80 63 105 87 25 23 50 43
55 44 6 2 33 17 62 35 39 26 59 32 86 29 29 -4 36 -1 45 20 13 29 6 31 -25 10
l-22 -16 14 42 c19 54 20 54 -14 30 l-28 -20 -211 103 c-115 58 -212 110 -214
116 -2 8 -30 -6 -73 -35 -85 -58 -97 -67 -92 -72 4 -4 111 51 133 68 6 5 79
-25 180 -74 93 -46 188 -92 211 -102 24 -11 43 -23 43 -26 0 -7 -76 -69 -85
-69 -4 0 -22 -12 -41 -26 l-34 -26 -1 23 c-1 17 -3 19 -6 7 -2 -10 -15 -21
-28 -24 -13 -3 -33 -17 -46 -30 -12 -13 -26 -24 -31 -24 -4 0 -17 -9 -28 -20
-20 -20 -46 -28 -36 -11 3 5 -3 11 -14 14 -11 3 -20 11 -20 17 0 12 15 10 53
-5 12 -5 17 -3 17 8 0 8 -7 14 -16 13 -9 0 -19 6 -21 14 -3 10 -2 11 4 3 11
-16 38 1 28 17 -5 8 -4 11 3 6 6 -3 13 -2 16 2 6 10 -73 57 -81 48 -3 -3 -11
1 -17 9 -6 7 -33 25 -60 38 -37 19 -56 23 -77 17 -28 -8 -33 -6 -30 13 1 5 -3
6 -8 3 -5 -3 -19 2 -32 12 -49 36 -79 47 -99 35 -14 -9 -22 -9 -36 2 -26 19
-31 18 -37 -5 -5 -19 -11 -18 -99 30 -51 28 -130 70 -175 93 -46 23 -83 44
-83 48 0 3 12 12 28 19 15 8 35 21 45 29 15 12 20 13 26 2 6 -9 10 -7 14 8 3
11 18 26 34 33 15 7 30 15 33 18 3 3 21 17 41 32 28 21 38 36 41 63 5 41 -4
52 -22 30 -22 -26 -33 -17 -25 21 5 32 4 36 -10 30 -9 -3 -21 -6 -26 -6 -4 0
-6 -6 -3 -13 6 -16 -39 -42 -55 -33 -6 4 -32 -7 -58 -25 -26 -18 -66 -43 -88
-55 -48 -25 -22 -34 -258 90 -81 43 -151 75 -154 72 -10 -9 -6 -11 173 -105
92 -48 169 -92 171 -97 2 -5 -9 -17 -24 -26 -16 -10 -22 -18 -15 -18 10 0 10
-4 -2 -16 -9 -8 -16 -24 -16 -35 0 -21 -20 -27 -20 -6 -1 6 -7 -1 -16 -18
l-14 -30 4 43 c5 48 0 51 -40 20 -24 -19 -27 -20 -21 -4 4 10 7 20 7 22 0 3 5
2 11 -2 7 -4 10 -2 7 6 -2 7 -37 30 -78 52 -41 22 -111 60 -156 84 -61 33 -83
41 -92 32 -6 -6 -15 -8 -19 -4 -4 4 3 16 17 26 20 16 22 20 8 20 -10 0 -18 7
-18 16 0 10 6 14 15 10 19 -7 19 -1 -1 18 -9 9 -11 16 -4 16 6 0 8 5 5 10 -8
12 4 70 13 69 20 -3 23 3 11 18 -13 17 -13 17 13 0 29 -18 48 -22 48 -9 0 4
-16 14 -35 21 -19 7 -35 19 -35 27 0 17 -5 17 -32 3 -24 -13 -78 6 -78 26 0 9
-14 6 -46 -11 -51 -27 -66 -30 -63 -11 1 6 1 22 0 34 -1 20 -4 21 -26 13 -24
-9 -25 -8 -25 30 0 43 -5 47 -34 25 -18 -13 -32 -8 -163 60 -79 41 -149 75
-156 75 -6 0 52 -35 131 -76 117 -63 141 -78 131 -90 -6 -8 -16 -14 -21 -14
-6 0 -68 -29 -138 -65 -71 -36 -132 -61 -135 -56 -3 5 4 12 15 16 28 9 25 18
-11 39 -28 17 -30 17 -27 1 4 -21 -27 -29 -54 -14 -21 11 -15 27 14 38 18 7
16 9 -18 26 -22 10 -55 28 -74 41 -30 18 -43 21 -85 15 -28 -4 -62 -15 -75
-24 -33 -23 -55 -21 -99 5 -55 35 -92 56 -138 80 -42 22 -55 38 -30 38 6 0 34
12 62 25 27 13 52 21 55 16 3 -4 56 -36 118 -71 109 -61 113 -62 132 -45 19
17 19 19 3 30 -15 10 -90 52 -181 100 l-22 12 24 17 c14 9 30 16 36 16 5 0 10
11 10 25 0 14 -2 25 -5 25 -12 0 -55 -24 -55 -31 0 -9 -41 -24 -54 -20 -21 5
-136 -52 -136 -68 0 -9 -11 -21 -25 -28 -19 -8 -25 -8 -25 0 0 16 -56 40 -71
31 -7 -4 -9 -3 -5 4 4 6 -21 27 -62 51 -69 41 -88 49 -77 31 3 -6 -1 -7 -9 -4
-25 10 -20 52 7 59 46 13 147 58 147 65 0 8 33 23 55 25 6 0 24 4 42 8 22 6
41 4 62 -8 36 -18 39 -9 15 41 -9 18 -14 39 -11 46 4 8 6 7 6 -4 1 -22 9 -23
35 -1 12 10 16 12 10 4 -9 -9 -9 -20 -1 -42 9 -22 9 -34 -1 -49 -17 -28 6 -27
42 1 15 12 30 18 34 15 3 -4 1 -10 -5 -14 -20 -12 184 -115 213 -108 34 9 30
18 -19 41 -65 31 -57 52 31 89 39 16 72 34 72 39 0 5 -8 6 -17 2 -10 -4 -27
-9 -38 -12 -16 -3 -15 -1 5 11 l25 16 -26 -6 c-17 -3 -39 2 -63 15 -20 12 -48
21 -62 21 -14 0 -23 4 -19 10 4 6 12 7 18 3 7 -3 0 6 -15 21 -19 19 -33 26
-45 22 -13 -5 -14 -9 -5 -15 8 -4 10 -15 6 -26 -5 -12 -4 -16 4 -11 7 4 10 -1
7 -14 -3 -16 7 -26 51 -48 55 -28 55 -28 30 -40 -21 -9 -29 -8 -48 8 -13 11
-18 19 -12 20 5 0 16 -6 24 -12 12 -11 12 -10 0 5 -9 13 -21 16 -38 12 -17 -4
-22 -2 -16 6 4 7 3 9 -4 6 -5 -4 -21 -3 -34 2 -12 6 -17 10 -10 10 7 1 10 5 7
11 -3 5 0 7 8 4 8 -3 18 0 23 7 4 7 3 10 -4 5 -6 -3 -16 3 -22 14 -8 15 -8 20
2 20 8 1 5 6 -6 15 -14 11 -23 12 -32 4 -7 -6 -18 -8 -25 -4 -8 6 -7 10 2 16
12 7 12 9 0 9 -7 0 -22 11 -33 25 -11 14 -23 23 -27 21 -4 -3 -13 -1 -21 5
-11 6 -5 9 21 9 63 0 128 -12 133 -25 3 -10 -6 -12 -37 -8 -40 5 -41 4 -21
-10 36 -27 88 -8 68 24 -3 5 6 4 20 -2 14 -7 24 -15 23 -19 -1 -4 15 -21 36
-38 21 -17 38 -33 38 -36 -2 -17 0 -17 14 -6 9 7 22 9 32 4 10 -4 25 -9 33
-10 8 -1 24 -5 35 -9 11 -4 3 4 -17 19 -20 14 -42 26 -48 26 -6 0 -8 4 -5 10
4 6 -1 7 -11 3 -10 -4 -22 0 -30 11 -6 10 -20 16 -30 14 -10 -2 -19 3 -19 10
0 7 -11 22 -25 32 -20 16 -22 22 -11 29 11 7 11 9 0 13 -9 3 -9 6 3 11 12 4
16 1 13 -12 -2 -11 3 -28 10 -39 16 -22 62 -35 69 -18 3 7 5 7 5 -1 1 -7 7
-13 15 -13 7 0 27 -7 42 -15 16 -8 40 -15 54 -14 24 0 24 1 4 9 -27 11 -38 38
-23 56 15 18 24 18 45 -3 10 -10 28 -16 42 -14 13 1 22 -1 18 -7 -7 -12 -55
-7 -69 7 -13 13 -27 14 -27 2 0 -5 18 -18 40 -29 22 -11 40 -16 40 -11 0 18
74 -37 84 -62 10 -29 61 -56 105 -57 13 -1 34 -11 47 -23 l24 -22 0 22 c0 12
-4 20 -8 17 -5 -3 -22 8 -37 24 -16 17 -39 30 -51 30 -12 0 -27 7 -34 15 -7 8
-16 12 -21 9 -5 -3 -6 2 -3 10 3 9 10 13 15 10 5 -3 9 0 9 5 0 6 -8 11 -19 11
-10 0 -25 7 -32 16 -7 9 -22 20 -34 25 -16 8 -14 8 10 4 l30 -5 -30 16 c-40
22 -41 24 -26 33 10 6 9 10 -4 14 -9 4 -14 3 -11 -1 2 -4 1 -14 -3 -21 -10
-16 -51 2 -51 22 0 16 -52 68 -71 70 -8 2 -20 6 -26 10 -7 5 -13 5 -13 1 0 -4
-7 1 -15 12 -8 10 -15 14 -15 7 0 -7 -10 -10 -27 -7 -24 5 -25 3 -12 -13 12
-16 11 -15 -9 1 -12 11 -21 26 -20 35 2 11 -5 16 -24 15 -15 0 -30 6 -32 13
-6 16 -1 16 25 3 12 -7 19 -7 19 -1 0 6 -16 18 -35 27 -19 9 -33 20 -30 24 5
7 -32 23 -47 21 -5 -1 -8 3 -8 9 0 5 -5 10 -11 10 -5 0 -7 -6 -3 -12 4 -7 -1
-5 -12 4 -13 13 -15 21 -7 29 8 8 13 8 17 0 10 -16 26 -13 26 4 0 8 -9 15 -20
15 -11 0 -20 7 -20 15 0 8 -4 15 -10 15 -5 0 -10 4 -10 8 0 5 13 7 30 4 16 -2
28 -8 25 -12 -3 -5 3 -11 13 -14 11 -4 24 -18 30 -32 7 -14 18 -24 24 -23 22
4 81 -13 96 -27 18 -18 29 -18 29 1 0 8 -4 15 -8 15 -4 0 -10 8 -13 18 -4 10
5 5 20 -12 14 -16 35 -28 49 -28 14 0 22 -4 19 -9 -3 -5 3 -9 13 -9 29 0 105
-53 90 -62 -9 -6 -9 -8 1 -8 6 0 12 -6 12 -14 0 -23 31 -48 52 -43 10 3 16 1
12 -4 -5 -9 9 -13 34 -10 7 1 15 -5 18 -14 4 -10 13 -13 26 -9 14 4 18 2 14
-5 -5 -7 -1 -9 11 -4 10 3 15 2 10 -2 -4 -5 1 -17 10 -27 15 -17 15 -20 3 -28
-12 -8 -12 -10 3 -10 10 0 16 -4 13 -8 -3 -4 8 -13 25 -19 17 -7 29 -7 29 -2
0 5 -7 12 -16 16 -12 4 -13 8 -3 14 9 5 2 14 -22 28 -18 11 -34 29 -34 38 0
11 -9 19 -22 21 -12 2 -27 10 -33 18 -7 8 -19 14 -28 14 -8 0 -12 3 -9 7 8 8
-11 33 -25 33 -7 0 -7 -4 0 -12 8 -10 3 -13 -19 -13 -22 0 -29 5 -29 20 0 13
3 16 8 8 5 -8 13 -9 22 -3 8 6 25 10 38 10 12 0 22 3 22 8 0 4 -19 7 -41 7
-32 0 -45 6 -57 23 -8 12 -21 22 -28 22 -24 0 -124 49 -130 63 -5 14 -16 17
-74 17 -34 0 -50 13 -50 40 0 13 1 13 11 0 9 -12 10 -11 6 8 -4 15 0 22 10 22
10 0 14 -6 10 -20 -5 -19 8 -26 37 -21 4 1 15 -4 24 -11 13 -11 14 -11 7 1 -6
11 -4 13 7 8 9 -3 20 -1 26 5 7 7 18 4 36 -8 27 -20 33 -34 15 -34 -5 0 -7 -6
-3 -12 4 -7 -3 -3 -16 10 -27 28 -41 21 -15 -8 10 -12 25 -18 32 -16 19 8 43
-4 43 -20 0 -19 16 -18 24 1 3 8 -2 19 -12 24 -15 9 -15 10 3 11 11 1 14 4 7
7 -7 3 -19 0 -26 -7 -10 -7 -16 -8 -21 0 -3 5 -1 10 6 10 7 0 3 10 -10 24 -29
31 -9 47 23 17 23 -22 42 -28 31 -11 -3 6 -1 10 6 10 8 0 8 4 -1 15 -10 12
-10 15 2 15 8 0 19 -5 26 -12 9 -9 7 -15 -6 -25 -15 -12 -13 -13 19 -7 27 4
38 2 42 -9 3 -8 20 -18 37 -22 17 -4 34 -14 37 -22 5 -12 7 -12 14 -1 6 9 9
10 9 1 0 -7 13 -19 29 -27 27 -15 29 -14 34 6 5 17 11 20 37 15 19 -4 29 -3
25 3 -9 15 -51 12 -65 -5 -10 -12 -16 -13 -27 -3 -13 10 -12 13 4 20 14 7 13
7 -6 4 -14 -3 -36 1 -50 9 -14 8 -38 19 -53 25 -18 6 -26 14 -22 24 3 8 1 17
-5 21 -7 4 -9 -1 -5 -12 4 -13 1 -12 -12 4 -9 13 -26 23 -38 23 -19 1 -19 2
-3 11 13 7 26 6 50 -5 l32 -16 -30 25 c-16 14 -38 24 -48 21 -9 -2 -15 0 -11
5 3 5 1 9 -4 9 -5 0 -22 11 -38 25 -16 14 -45 28 -64 32 -19 3 -29 8 -22 10
21 8 13 29 -15 41 -19 8 -21 11 -7 8 12 -2 21 2 21 10 0 8 -6 14 -13 14 -8 0
-11 6 -8 15 4 10 0 15 -11 15 -9 0 -13 5 -10 10 3 6 1 10 -6 10 -7 0 -10 3 -6
6 3 3 22 1 43 -6 27 -9 33 -15 23 -21 -9 -7 -5 -8 12 -4 18 5 28 2 32 -8 4
-10 -1 -13 -21 -9 -24 5 -26 3 -13 -11 7 -10 19 -17 26 -17 18 0 48 -37 40
-49 -3 -7 2 -11 14 -11 12 0 21 5 21 11 0 5 -6 7 -12 3 -7 -4 -4 2 6 14 23 27
25 27 19 2 -7 -25 15 -46 63 -59 51 -14 54 -14 48 4 -4 8 -11 15 -18 15 -14 0
-70 58 -72 76 -1 8 2 14 8 14 6 0 8 -6 5 -12 -3 -9 10 -14 45 -15 32 -2 58 -9
75 -23 26 -20 53 -27 53 -12 0 10 -66 40 -97 45 -28 4 -50 23 -56 48 -5 18 -2
20 18 15 13 -3 38 -19 56 -36 25 -22 36 -27 46 -18 10 8 20 8 37 0 12 -5 29
-6 36 -2 7 4 20 6 29 3 14 -4 14 -3 1 6 -8 6 -10 11 -4 11 5 0 16 -6 22 -12 7
-7 26 -13 42 -13 33 0 30 5 -22 33 -21 10 -35 22 -31 26 3 3 -1 6 -10 6 -11 0
-16 -7 -14 -21 1 -12 -4 -24 -12 -27 -8 -2 -11 0 -8 5 3 5 -9 10 -26 11 -21 2
-39 11 -50 27 -10 14 -23 25 -29 25 -6 0 -6 -6 2 -15 8 -10 9 -15 2 -15 -6 0
-16 9 -23 21 -8 16 -18 20 -40 17 -18 -3 -30 1 -34 10 -3 10 0 12 10 8 28 -10
15 12 -14 25 -21 9 -27 17 -20 25 14 17 0 44 -18 37 -12 -5 -14 -3 -8 8 6 11
5 11 -5 2 -14 -13 -6 -48 10 -38 5 3 7 0 4 -8 -3 -8 2 -22 11 -31 9 -9 13 -21
9 -27 -4 -7 -3 -9 3 -6 15 10 24 -18 10 -32 -8 -8 -8 -11 1 -11 7 0 12 -5 12
-10 0 -6 -6 -10 -12 -9 -28 3 -36 -2 -31 -21 3 -11 0 -20 -6 -20 -6 0 -10 5
-9 11 2 6 -7 13 -20 14 -12 1 -28 8 -35 15 -10 10 -9 12 6 7 9 -4 17 -2 17 3
0 6 -7 10 -16 10 -10 0 -14 6 -11 14 3 7 0 19 -6 26 -9 9 -6 9 10 -1 12 -7 26
-24 32 -37 15 -33 34 -23 39 20 2 27 -3 43 -23 66 -14 17 -24 36 -23 43 3 12
-2 14 -34 18 -14 1 7 26 22 26 12 0 14 20 3 20 -12 1 -49 24 -40 26 4 1 12 3
17 4 6 1 13 3 17 4 18 3 -34 41 -58 41 -15 0 -34 3 -43 6 -27 10 -18 24 17 24
l32 1 -25 14 c-28 16 -54 20 -30 5 13 -8 13 -10 -2 -10 -9 0 -23 -3 -32 -6 -9
-3 -16 -1 -16 6 0 6 5 8 13 4 9 -6 9 -5 1 7 -9 11 -9 17 1 26 11 10 15 10 18
0 3 -7 6 -7 6 -2 0 6 -6 18 -14 28 -16 22 -95 36 -95 18 0 -8 8 -10 19 -6 19
6 78 -12 69 -21 -3 -2 -17 0 -32 6 -17 6 -34 7 -43 1 -13 -7 -10 -10 15 -16
27 -5 32 -11 32 -35 0 -16 7 -36 16 -44 19 -20 10 -63 -10 -47 -7 6 -16 8 -19
4 -4 -3 -13 0 -22 7 -12 10 -18 10 -30 0 -9 -8 -15 -8 -15 -2 0 6 6 12 12 15
21 7 0 20 -32 20 -17 0 -30 4 -30 9 0 4 7 8 15 8 9 0 12 6 8 18 -6 16 -5 16
13 1 10 -9 28 -19 39 -21 11 -3 28 -9 39 -13 16 -7 17 -6 7 14 -7 12 -16 19
-21 16 -6 -3 -7 1 -4 9 3 9 11 16 17 16 6 0 8 3 5 6 -4 3 -15 1 -25 -4 -19
-10 -116 14 -108 27 2 4 -1 13 -6 21 -8 12 -12 12 -16 3 -2 -7 -11 -13 -19
-13 -9 0 -12 5 -9 10 3 6 -1 10 -10 10 -19 0 -32 -29 -18 -39 7 -4 6 -11 -3
-19 -10 -9 -14 -9 -14 -1 0 8 -4 8 -15 -1 -12 -10 -15 -9 -15 4 0 10 -4 14
-10 11 -5 -3 -10 1 -10 9 0 8 10 17 23 19 19 4 19 4 -5 6 -15 0 -30 -4 -33 -9
-4 -6 -11 -7 -17 -4 -5 4 2 14 18 25 20 13 30 15 35 7 6 -9 14 -9 33 0 33 15
33 24 -2 40 -23 10 -29 10 -38 -3 -15 -21 -24 -19 -24 5 0 11 7 20 15 20 8 0
15 5 15 10 0 6 -21 10 -47 11 -35 0 -42 3 -28 8 11 5 26 6 33 3 15 -5 44 17
36 29 -3 5 5 9 17 9 18 0 19 -2 9 -15 -11 -13 -8 -16 19 -21 21 -5 31 -12 31
-25 0 -11 6 -20 13 -20 15 -2 30 -5 37 -9 15 -8 50 -6 50 4 0 6 -12 13 -27 14
-30 2 -56 28 -46 45 3 5 -7 6 -26 2 -21 -4 -31 -3 -31 5 0 7 7 10 16 6 10 -4
14 -1 12 6 -3 7 -24 18 -49 24 -24 6 -43 17 -41 23 1 6 -5 11 -13 11 -20 0
-19 -20 3 -36 12 -10 13 -13 3 -14 -11 0 -11 -3 -1 -15 9 -11 10 -15 1 -15 -7
0 -19 7 -27 15 -9 8 -11 15 -5 15 6 0 11 5 11 11 0 8 -11 9 -32 5 -25 -5 -30
-3 -18 5 13 9 12 10 -2 5 -11 -3 -18 0 -18 8 0 8 -5 16 -11 18 -5 2 -7 11 -4
20 6 15 10 13 34 -11 22 -22 29 -25 39 -15 7 7 12 17 12 23 0 12 29 23 41 15
11 -7 11 -1 -1 30 -5 14 -6 26 -1 26 5 0 11 -7 15 -15 6 -17 34 -19 56 -4 12
9 10 10 -9 5 -17 -3 -29 2 -41 17 -16 19 -20 20 -43 8 -33 -18 -57 -8 -52 19
3 17 -4 25 -32 36 -19 8 -38 13 -41 10 -3 -3 -10 -2 -16 3 -6 5 -24 11 -41 13
-25 2 -29 0 -27 -17 2 -11 9 -23 15 -27 18 -11 1 -21 -22 -13 -17 5 -19 10
-11 25 7 12 6 21 -3 28 -16 14 -105 34 -117 27 -5 -3 -11 -1 -14 4 -3 5 1 12
10 15 23 9 56 7 50 -2 -7 -11 66 -14 82 -3 17 10 -40 24 -63 15 -8 -4 -15 -1
-15 6 0 8 -10 11 -30 7 -37 -8 -111 20 -89 34 10 6 7 9 -13 9 -39 0 -34 -29 7
-44 16 -6 17 -9 5 -16 -19 -12 -33 -13 -25 -1 3 5 -3 12 -14 16 -10 3 -21 15
-24 25 -6 23 -42 27 -50 6 -4 -10 2 -16 16 -19 18 -3 17 -5 -6 -6 -25 -1 -27
2 -22 20 5 14 3 19 -3 15 -6 -3 -13 -2 -17 4 -7 11 2 12 85 11 48 -1 52 1 30
10 -14 6 -46 9 -72 6 -27 -2 -48 0 -48 4 0 9 39 14 69 10 7 -2 10 2 6 8 -3 6
-19 11 -35 11 -22 0 -28 4 -24 15 4 10 15 12 36 8 22 -4 29 -3 24 5 -17 27
-91 3 -82 -26 9 -29 -6 -42 -33 -28 l-24 13 22 22 c27 27 14 28 -15 0 -22 -21
-24 -21 -71 -5 -26 9 -64 20 -83 25 l-35 9 44 1 c27 1 51 -5 61 -14 16 -14 18
-14 24 0 4 12 -4 20 -29 31 -40 17 -46 28 -11 22 23 -5 45 17 31 30 -3 3 -5 0
-5 -8 0 -10 -3 -10 -15 0 -12 10 -18 10 -30 0 -10 -8 -15 -9 -15 -1 0 7 -813
11 -2930 11 l-2930 0 0 -2495z m5515 2475 c3 -6 -1 -7 -9 -4 -18 7 -21 14 -7
14 6 0 13 -4 16 -10z m318 3 c-7 -2 -21 -2 -30 0 -10 3 -4 5 12 5 17 0 24 -2
18 -5z m-73 -23 c0 -5 -5 -10 -11 -10 -5 0 -7 5 -4 10 3 6 8 10 11 10 2 0 4
-4 4 -10z m37 -30 c-4 -28 -14 -34 -30 -19 -12 12 -12 15 2 26 23 18 31 16 28
-7z m-49 -47 c-10 -2 -28 -2 -40 0 -13 2 -5 4 17 4 22 1 32 -1 23 -4z m122 -3
c0 -5 -2 -10 -4 -10 -3 0 -8 5 -11 10 -3 6 -1 10 4 10 6 0 11 -4 11 -10z m-67
-37 c-7 -2 -21 -2 -30 0 -10 3 -4 5 12 5 17 0 24 -2 18 -5z m221 1 c20 -7 11
-24 -12 -24 -14 0 -14 2 -3 9 11 7 10 10 -5 14 -10 2 -14 5 -7 6 6 0 18 -2 27
-5z m-89 -23 c3 -5 1 -12 -5 -16 -5 -3 -10 1 -10 9 0 18 6 21 15 7z m50 -11
c-3 -5 -10 -10 -16 -10 -5 0 -9 5 -9 10 0 6 7 10 16 10 8 0 12 -4 9 -10z m65
-4 c0 -3 -4 -8 -10 -11 -5 -3 -10 -1 -10 4 0 6 5 11 10 11 6 0 10 -2 10 -4z
m-250 -30 c0 -2 -7 -9 -15 -16 -13 -11 -14 -10 -9 4 5 14 24 23 24 12z m305
-22 c-19 -14 -19 -16 -2 -25 9 -6 17 -15 17 -22 0 -8 -3 -9 -8 -1 -4 6 -15 13
-25 17 -15 6 -16 10 -5 27 7 11 20 20 28 20 11 -1 10 -4 -5 -16z m135 6 c0 -5
-2 -10 -4 -10 -3 0 -8 5 -11 10 -3 6 -1 10 4 10 6 0 11 -4 11 -10z m-86 -22
c-5 -8 -2 -9 11 -4 15 5 16 4 5 -9 -10 -12 -16 -13 -27 -4 -11 10 -11 14 -1
20 18 12 20 11 12 -3z m84 -16 c2 -7 -2 -10 -12 -6 -9 3 -16 11 -16 16 0 13
23 5 28 -10z m90 -4 c-9 -5 -5 -8 12 -8 20 0 26 -6 28 -25 1 -14 -3 -25 -9
-25 -5 0 -7 5 -4 10 3 6 -2 10 -12 10 -15 0 -16 2 -3 10 11 7 8 10 -16 10 -18
0 -34 6 -37 13 -4 10 4 14 24 14 19 0 25 -3 17 -9z m-298 -8 c0 -5 -2 -10 -4
-10 -3 0 -8 5 -11 10 -3 6 -1 10 4 10 6 0 11 -4 11 -10z m420 -26 c0 -11 4
-12 18 -5 28 15 60 2 74 -30 8 -19 20 -29 34 -29 11 0 23 -3 26 -6 10 -10 -4
-44 -18 -44 -20 0 -17 17 4 29 12 8 3 9 -38 7 -46 -4 -58 -1 -75 18 -30 33
-55 73 -48 80 9 9 23 -3 23 -20z m-450 2 c0 -2 -7 -7 -16 -10 -8 -3 -12 -2 -9
4 6 10 25 14 25 6z m100 -12 c0 -2 -7 -4 -15 -4 -8 0 -15 4 -15 10 0 5 7 7 15
4 8 -4 15 -8 15 -10z m40 12 c0 -2 -7 -7 -16 -10 -8 -3 -12 -2 -9 4 6 10 25
14 25 6z m130 -6 c0 -5 -8 -10 -17 -10 -15 0 -16 2 -3 10 19 12 20 12 20 0z
m-225 -10 c3 -5 1 -10 -4 -10 -6 0 -11 5 -11 10 0 6 2 10 4 10 3 0 8 -4 11
-10z m272 4 c-3 -3 -12 -4 -19 -1 -8 3 -5 6 6 6 11 1 17 -2 13 -5z m-650 -10
c-3 -3 -12 -4 -19 -1 -8 3 -5 6 6 6 11 1 17 -2 13 -5z m516 -1 c-7 -2 -19 -2
-25 0 -7 3 -2 5 12 5 14 0 19 -2 13 -5z m231 -28 c3 -8 1 -15 -4 -15 -6 0 -10
4 -10 9 0 5 -8 12 -17 14 -14 4 -13 5 3 6 12 0 24 -6 28 -14z m-24 -25 c0 -5
-4 -10 -9 -10 -6 0 -13 5 -16 10 -3 6 1 10 9 10 9 0 16 -4 16 -10z m86 -16
c-3 -9 -6 -20 -6 -25 0 -5 -16 -9 -35 -9 -19 0 -35 5 -35 10 0 6 11 8 26 4 20
-5 26 -2 31 15 3 11 10 21 15 21 6 0 7 -7 4 -16z m-173 -1 c-7 -2 -19 -2 -25
0 -7 3 -2 5 12 5 14 0 19 -2 13 -5z m47 -9 c0 -8 -4 -12 -10 -9 -5 3 -10 10
-10 16 0 5 5 9 10 9 6 0 10 -7 10 -16z m42 -33 c2 -22 0 -37 -3 -35 -9 5 -17
74 -8 74 4 0 9 -18 11 -39z m-112 9 c0 -5 -2 -10 -4 -10 -3 0 -8 5 -11 10 -3
6 -1 10 4 10 6 0 11 -4 11 -10z m35 -30 c3 -6 -1 -7 -9 -4 -18 7 -21 14 -7 14
6 0 13 -4 16 -10z m169 -15 c-7 -16 -24 -21 -24 -6 0 8 7 13 27 20 1 1 0 -6
-3 -14z m-97 -37 c-3 -8 -6 -5 -6 6 -1 11 2 17 5 13 3 -3 4 -12 1 -19z m43 7
c0 -8 -4 -15 -10 -15 -5 0 -10 7 -10 15 0 8 5 15 10 15 6 0 10 -7 10 -15z
m115 7 c12 -8 14 -72 3 -72 -8 0 -12 16 -9 33 0 4 -4 7 -10 7 -5 0 -7 5 -4 10
3 6 2 10 -4 10 -5 0 -13 -4 -16 -10 -3 -5 -1 -10 5 -10 7 0 10 -5 8 -12 -5
-14 -47 -19 -54 -6 -3 5 -2 8 3 7 28 -5 36 2 17 16 -18 15 -18 15 0 8 14 -5
17 -3 11 7 -5 8 -4 11 3 6 6 -3 13 -2 17 4 7 12 16 13 30 2z m-165 -67 c0 -8
-4 -15 -10 -15 -5 0 -7 7 -4 15 4 8 8 15 10 15 2 0 4 -7 4 -15z m70 4 c0 -24
30 -41 61 -34 29 7 30 6 19 -15 -9 -17 -14 -19 -26 -9 -7 6 -23 9 -35 6 -12
-3 -18 -3 -15 0 3 4 0 13 -6 21 -15 18 -19 42 -7 42 5 0 9 -5 9 -11z m160 -9
c0 -5 -2 -10 -4 -10 -3 0 -8 5 -11 10 -3 6 -1 10 4 10 6 0 11 -4 11 -10z
m-280 -20 c12 -8 11 -10 -7 -10 -12 0 -25 5 -28 10 -8 13 15 13 35 0z m250
-56 c0 -2 -15 -4 -32 -3 -27 0 -29 2 -13 8 18 8 45 4 45 -5z m-193 0 c-3 -3
-12 -4 -19 -1 -8 3 -5 6 6 6 11 1 17 -2 13 -5z m108 -13 c-3 -6 -11 -11 -16
-11 -5 0 -4 6 3 14 14 16 24 13 13 -3z m40 -21 c-6 -19 2 -25 33 -21 6 1 12
-2 12 -8 0 -15 -24 -19 -38 -5 -7 7 -20 10 -30 7 -15 -6 -15 -5 1 14 14 16 15
22 5 26 -8 3 -6 6 5 6 14 1 17 -4 12 -19z m228 -10 c7 0 7 -4 -2 -9 -16 -10
-41 -4 -41 11 0 6 7 7 16 4 9 -3 21 -6 27 -6z m-198 -47 c10 1 20 -4 23 -12 2
-8 0 -11 -6 -7 -6 3 -12 1 -14 -5 -3 -8 -12 -7 -31 6 -15 9 -34 14 -43 11 -14
-5 -15 -4 -5 8 9 11 19 12 35 6 13 -4 31 -8 41 -7z m160 6 c4 -6 -1 -17 -11
-24 -13 -10 -15 -14 -5 -15 9 0 11 -8 7 -25 -4 -14 -2 -25 3 -25 6 0 8 -7 4
-16 -4 -10 1 -17 16 -21 11 -3 21 -9 21 -14 0 -5 8 -9 18 -9 10 0 24 -6 30
-12 14 -14 62 -19 62 -6 0 4 -8 12 -17 18 -12 8 -13 10 -3 7 8 -2 20 -13 25
-26 8 -17 17 -21 43 -19 18 1 36 -3 40 -9 4 -6 27 -13 52 -15 25 -1 48 -7 53
-13 4 -6 11 -4 17 5 7 11 10 12 10 2 0 -9 7 -11 19 -7 12 3 21 0 25 -10 3 -8
1 -15 -5 -15 -6 0 -6 -7 1 -19 7 -14 7 -22 -2 -27 -6 -4 -8 -3 -5 3 7 11 -25
40 -58 53 -21 8 -23 6 -20 -13 l4 -22 -19 23 c-15 19 -23 21 -37 13 -16 -9
-16 -10 -2 -11 9 0 22 -6 28 -14 10 -12 7 -13 -23 -4 -20 6 -34 13 -32 15 10
10 -48 54 -65 50 -10 -3 -23 1 -29 8 -8 9 -30 12 -68 10 -31 -2 -49 -1 -39 2
26 7 21 18 -16 31 -24 9 -38 23 -52 54 -11 24 -18 49 -17 56 2 6 -7 12 -20 13
-22 0 -22 1 -3 9 11 5 14 9 7 9 -7 1 -10 6 -7 11 8 13 62 13 70 -1z m39 -5 c9
-3 14 -10 11 -15 -7 -10 -35 0 -35 12 0 11 3 11 24 3z m-431 -41 c-4 -10 -9
-11 -19 -2 -18 15 -18 15 5 15 11 0 17 -5 14 -13z m180 -8 c-3 -9 -8 -14 -10
-11 -3 3 -2 9 2 15 9 16 15 13 8 -4z m512 -5 c-3 -5 -1 -10 5 -10 6 0 8 -5 4
-11 -3 -6 -16 -8 -27 -5 -12 3 -25 -1 -31 -9 -8 -10 -16 -12 -26 -5 -9 6 -11
10 -3 10 7 0 10 7 6 16 -5 14 -2 16 20 10 14 -3 29 -2 32 4 3 5 11 10 16 10 6
0 7 -4 4 -10z m-285 -10 c0 -5 -5 -10 -11 -10 -5 0 -7 5 -4 10 3 6 8 10 11 10
2 0 4 -4 4 -10z m-346 -14 c-3 -9 -13 -12 -27 -8 -21 6 -21 6 3 13 14 4 26 7
27 8 1 1 0 -5 -3 -13z m46 -2 c0 -2 -7 -4 -15 -4 -8 0 -15 4 -15 10 0 5 7 7
15 4 8 -4 15 -8 15 -10z m125 6 c3 -5 -1 -10 -10 -10 -9 0 -13 5 -10 10 3 6 8
10 10 10 2 0 7 -4 10 -10z m196 -17 c-8 -15 -10 -15 -11 -2 0 17 10 32 18 25
2 -3 -1 -13 -7 -23z m129 17 c0 -5 9 -10 19 -10 11 0 23 -9 26 -20 4 -11 11
-17 17 -14 7 4 8 2 4 -5 -4 -6 0 -14 9 -17 21 -9 33 5 15 16 -10 6 -11 10 -3
10 7 0 17 -9 23 -20 6 -11 15 -20 21 -20 6 0 8 4 5 8 -2 4 -1 14 5 22 7 12 9
10 9 -7 0 -13 5 -23 10 -23 6 0 10 -4 10 -10 0 -5 -13 -10 -29 -10 -17 0 -33
5 -36 10 -3 6 -10 10 -16 10 -5 0 -9 -4 -9 -10 0 -5 7 -10 15 -10 8 0 15 -5
15 -11 0 -7 -8 -6 -22 4 -13 8 -22 21 -20 28 2 9 -1 9 -13 -1 -8 -7 -18 -10
-22 -7 -3 4 -13 1 -22 -5 -9 -7 -13 -9 -9 -4 4 5 3 17 -3 27 -6 13 -6 19 1 19
5 0 10 -5 10 -11 0 -5 5 -7 12 -3 19 12 -30 46 -51 34 -13 -6 -22 -3 -35 12
-18 21 -18 21 18 15 22 -3 34 -2 31 4 -4 5 -1 9 4 9 6 0 11 -4 11 -10z m-383
-6 c-3 -3 -12 -4 -19 -1 -8 3 -5 6 6 6 11 1 17 -2 13 -5z m-186 -21 c13 -16
12 -17 -3 -4 -10 7 -18 15 -18 17 0 8 8 3 21 -13z m351 -2 c8 11 9 11 6 1 -4
-16 -22 -18 -25 -2 -1 7 0 6 4 -1 4 -8 8 -7 15 2z m-212 -17 c0 -8 -4 -12 -10
-9 -5 3 -10 10 -10 16 0 5 5 9 10 9 6 0 10 -7 10 -16z m-87 -11 c-5 -11 -3
-14 6 -8 10 6 11 3 1 -15 -11 -20 -10 -22 4 -17 10 4 15 3 11 -3 -8 -14 -52
-9 -52 6 0 7 7 10 15 6 10 -3 13 -1 8 7 -8 12 -1 41 8 41 3 0 2 -7 -1 -17z
m207 6 c12 -9 11 -10 -7 -6 -13 3 -23 0 -23 -6 0 -6 -3 -8 -6 -4 -7 7 4 27 14
27 4 0 14 -5 22 -11z m41 -31 c1 -7 1 -16 0 -20 0 -5 6 -8 14 -8 8 0 15 -4 15
-10 0 -13 -17 -13 -25 0 -4 6 -11 8 -16 5 -5 -4 -17 -1 -26 5 -16 9 -15 10 5
5 13 -4 22 -2 22 4 0 10 -16 15 -47 14 -7 -1 -10 3 -7 8 8 14 64 11 65 -3z
m-446 -17 c-3 -6 -11 -11 -16 -11 -5 0 -4 6 3 14 14 16 24 13 13 -3z m909 -7
c3 -8 2 -12 -4 -9 -6 3 -10 10 -10 16 0 14 7 11 14 -7z m-619 -5 c17 -8 16 -9
-7 -6 -15 2 -29 -1 -32 -7 -2 -6 -5 -3 -5 7 -1 19 13 21 44 6z m331 -14 c-19
-14 -19 -15 8 -15 21 0 27 -4 22 -15 -3 -8 -1 -15 4 -15 5 0 16 -7 24 -16 10
-9 24 -13 37 -9 20 7 20 7 2 21 -16 13 -15 13 10 2 19 -8 24 -14 15 -19 -9 -6
-7 -12 8 -26 11 -10 13 -13 5 -8 -10 7 -16 6 -18 -2 -3 -7 -9 -13 -14 -13 -6
0 -8 4 -4 9 5 9 -23 23 -36 18 -4 -1 -17 7 -29 18 -12 11 -25 19 -29 18 -3 -2
-6 1 -6 6 0 14 -10 21 -35 26 -13 3 -28 9 -34 15 -8 8 -4 10 16 5 15 -4 35 -2
45 4 26 15 31 13 9 -4z m253 5 c-6 -5 -18 -6 -26 -3 -19 8 -16 11 13 11 17 0
22 -3 13 -8z m-357 -12 c14 3 19 1 14 -6 -8 -14 -56 -16 -56 -4 0 14 14 24 18
14 2 -6 12 -7 24 -4z m-182 -13 c0 -8 -4 -15 -10 -15 -5 0 -7 7 -4 15 4 8 8
15 10 15 2 0 4 -7 4 -15z m35 5 c-3 -5 -12 -10 -18 -10 -7 0 -6 4 3 10 19 12
23 12 15 0z m35 -20 c8 -5 11 -10 5 -10 -5 0 -17 5 -25 10 -8 5 -10 10 -5 10
6 0 17 -5 25 -10z m54 1 c4 -5 -1 -8 -9 -7 -21 3 -31 16 -12 16 9 0 18 -4 21
-9z m117 -9 c-7 -2 -18 1 -23 6 -8 8 -4 9 13 5 13 -4 18 -8 10 -11z m-216 -24
c-19 -11 -30 -5 -21 11 4 6 14 7 22 4 15 -5 14 -7 -1 -15z m155 5 c0 -9 -5
-11 -12 -6 -7 4 -24 7 -38 6 l-25 -2 25 8 c37 11 50 9 50 -6z m50 -23 c0 -4
-7 -13 -15 -20 -22 -18 -44 2 -26 24 12 14 41 12 41 -4z m75 0 c3 -5 1 -10 -4
-10 -6 0 -11 5 -11 10 0 6 2 10 4 10 3 0 8 -4 11 -10z m-348 -6 c-3 -3 -12 -4
-19 -1 -8 3 -5 6 6 6 11 1 17 -2 13 -5z m97 -31 c3 -7 1 -15 -4 -18 -6 -4 -10
1 -10 9 0 14 -18 21 -42 17 -5 0 -8 4 -8 10 0 5 -5 7 -12 3 -6 -4 -8 -3 -5 3
8 13 75 -7 81 -24z m-404 23 c0 -2 -7 -7 -16 -10 -8 -3 -12 -2 -9 4 6 10 25
14 25 6z m435 -6 c3 -6 -1 -7 -9 -4 -18 7 -21 14 -7 14 6 0 13 -4 16 -10z
m175 -22 c0 -6 -7 -5 -15 2 -14 11 -14 10 -5 -14 12 -34 12 -36 0 -36 -5 0
-10 6 -10 13 0 8 -10 19 -22 26 -13 6 -16 10 -6 7 10 -3 18 3 22 16 4 18 7 19
20 8 9 -7 16 -17 16 -22z m50 -9 c0 -10 -3 -19 -7 -19 -5 0 -8 11 -8 24 0 13
3 22 8 19 4 -2 7 -13 7 -24z m491 21 c5 0 9 -4 9 -10 0 -14 -13 -12 -36 6 -17
14 -17 15 -1 10 10 -3 23 -6 28 -6z m-988 -15 c4 -8 1 -17 -6 -21 -7 -4 -9 -4
-5 1 4 4 3 14 -3 22 -7 8 -8 13 -1 13 5 0 12 -7 15 -15z m559 -5 c22 -20 44
-27 33 -11 -3 5 -1 12 5 16 6 4 10 -6 10 -24 0 -20 5 -31 14 -31 8 0 17 -4 20
-9 4 -5 -3 -7 -13 -4 -29 7 -22 -29 9 -47 14 -7 30 -15 35 -15 6 -1 17 -3 25
-4 13 -1 12 -4 -2 -15 -15 -11 -14 -14 18 -26 19 -8 40 -21 47 -29 10 -12 9
-13 -9 -3 -12 6 -26 7 -34 2 -8 -5 -25 -3 -41 6 -36 18 -42 18 -35 -3 5 -15 4
-15 -9 1 -8 11 -15 23 -15 28 0 13 35 9 49 -4 10 -11 11 -10 6 5 -5 10 -18 17
-35 17 -16 0 -35 6 -42 13 -7 7 -21 16 -30 19 -9 4 -22 17 -28 30 -9 19 -9 21
2 8 7 -9 22 -14 33 -13 l20 3 -20 -9 c-19 -9 -19 -10 3 -10 12 -1 22 4 22 9 0
6 0 12 0 15 0 3 -3 5 -6 4 -10 -1 -23 24 -17 34 2 4 10 4 17 0 7 -4 3 0 -8 10
-11 10 -28 16 -38 14 -10 -3 -16 -1 -12 4 3 5 -2 9 -10 9 -9 0 -16 7 -16 15 0
21 27 19 52 -5z m-667 -38 c-3 -3 -16 5 -28 17 l-22 23 28 -17 c15 -10 25 -20
22 -23z m70 20 c-3 -3 -11 0 -18 7 -9 10 -8 11 6 5 10 -3 15 -9 12 -12z m390
-2 c-3 -5 -12 -10 -18 -10 -7 0 -6 4 3 10 19 12 23 12 15 0z m441 -5 c-4 -24
-16 -30 -16 -7 0 12 4 22 9 22 5 0 8 -7 7 -15z m-511 -17 c35 -30 31 -43 -5
-16 -16 12 -30 25 -30 30 0 13 8 10 35 -14z m225 2 c0 -5 -2 -10 -4 -10 -3 0
-8 5 -11 10 -3 6 -1 10 4 10 6 0 11 -4 11 -10z m42 -12 c-9 -9 -15 -9 -24 1
-11 10 -10 11 5 6 10 -5 17 -2 17 6 0 7 3 9 7 6 4 -4 1 -13 -5 -19z m-599 -25
c-5 -11 -8 -12 -13 -2 -5 7 -6 19 -3 26 5 11 8 12 13 2 5 -7 6 -19 3 -26z
m137 22 c7 -8 9 -15 6 -15 -4 0 -14 7 -22 15 -9 8 -11 15 -6 15 5 0 15 -7 22
-15z m-383 -11 c-3 -3 -12 -4 -19 -1 -8 3 -5 6 6 6 11 1 17 -2 13 -5z m488 -4
c-3 -5 -12 -10 -18 -10 -7 0 -6 4 3 10 19 12 23 12 15 0z m165 -12 c0 -6 -6
-5 -15 2 -8 7 -15 14 -15 16 0 2 7 1 15 -2 8 -4 15 -11 15 -16z m35 2 c0 -7
-7 -15 -15 -17 -13 -4 -13 -3 0 6 13 10 13 12 0 22 -13 9 -13 10 0 6 8 -2 15
-10 15 -17z m115 10 c8 -5 12 -11 9 -14 -3 -3 -14 1 -25 9 -21 16 -8 20 16 5z
m-593 -6 c-3 -3 -12 -4 -19 -1 -8 3 -5 6 6 6 11 1 17 -2 13 -5z m-296 -31 c13
-16 12 -17 -3 -4 -10 7 -18 15 -18 17 0 8 8 3 21 -13z m843 2 c4 -10 -1 -15
-15 -15 -17 0 -18 2 -7 15 16 18 15 18 22 0z m-292 -23 c-7 -2 -9 -9 -6 -14 4
-7 2 -8 -4 -4 -6 4 -9 13 -6 21 4 8 11 12 17 8 8 -5 7 -8 -1 -11z m-482 4 c0
-2 -7 -7 -16 -10 -8 -3 -12 -2 -9 4 6 10 25 14 25 6z m639 -10 c8 -10 9 -16 1
-21 -5 -3 -10 -1 -10 5 0 6 -10 15 -22 20 -23 9 -23 9 -2 9 12 1 27 -5 33 -13z
m447 -6 c6 -8 14 -23 17 -33 6 -16 5 -16 -17 -2 -12 8 -24 13 -27 11 -2 -2
-10 2 -17 10 -8 9 -9 14 -2 14 6 0 9 4 6 9 -10 15 28 7 40 -9z m-1826 1 c0 -5
9 -12 19 -16 22 -7 22 -32 0 -46 -12 -8 -11 -11 4 -23 9 -7 16 -24 16 -37 -1
-16 -3 -18 -6 -7 -3 13 -10 15 -35 7 -37 -10 -37 -10 -44 25 -2 16 0 26 7 26
8 0 8 4 1 13 -6 7 -7 18 -2 26 4 8 6 20 3 28 -3 8 2 13 16 13 12 0 21 -4 21
-9z m1466 -11 c8 0 14 -4 14 -9 0 -20 -20 -21 -46 -4 -24 15 -25 17 -8 24 11
3 21 2 22 -2 2 -5 10 -9 18 -9z m111 9 c9 -9 8 -15 -3 -27 -8 -8 -18 -11 -22
-8 -3 4 0 11 8 17 13 8 13 10 0 19 -8 5 -10 10 -4 10 5 0 15 -5 21 -11z
m-1162 -49 l80 -43 -80 -24 c-44 -13 -88 -28 -98 -34 -11 -6 -21 -9 -23 -6 -2
2 14 14 36 26 25 14 38 27 33 34 -4 7 -1 7 9 -1 13 -10 22 -11 38 -2 12 6 19
14 17 17 -3 2 -7 3 -9 1 -3 -1 -12 5 -22 14 -9 9 -23 15 -30 12 -8 -3 -17 0
-22 7 -5 8 -3 10 6 4 8 -5 11 -4 7 2 -7 11 -57 5 -57 -6 0 -4 -16 -5 -35 -3
-34 4 -49 -11 -22 -21 9 -4 9 -6 0 -6 -6 -1 -15 4 -18 9 -3 6 -16 10 -28 11
-19 1 -18 2 8 14 17 8 40 14 51 15 12 0 27 6 33 13 17 21 40 15 126 -33z
m1105 10 c5 0 7 8 3 18 -5 14 -3 15 8 5 10 -10 10 -16 1 -25 -16 -16 -48 14
-36 34 7 10 10 7 12 -9 2 -13 7 -23 12 -23z m-383 4 c-7 -7 -37 7 -37 17 0 6
9 5 21 -1 11 -7 19 -14 16 -16z m132 0 c17 -8 29 -20 26 -25 -8 -12 -35 -11
-35 2 0 5 -5 7 -12 3 -7 -4 -8 -3 -4 4 4 7 2 12 -3 12 -6 0 -11 5 -11 10 0 13
1 13 39 -6z m108 0 c-3 -3 -12 -4 -19 -1 -8 3 -5 6 6 6 11 1 17 -2 13 -5z m38
-4 c3 -5 -1 -10 -9 -10 -9 0 -16 5 -16 10 0 6 4 10 9 10 6 0 13 -4 16 -10z
m-742 -7 c-7 -2 -21 -2 -30 0 -10 3 -4 5 12 5 17 0 24 -2 18 -5z m54 1 c-3 -3
-12 -4 -19 -1 -8 3 -5 6 6 6 11 1 17 -2 13 -5z m607 -9 c3 -8 1 -15 -4 -15 -6
0 -10 7 -10 15 0 8 2 15 4 15 2 0 6 -7 10 -15z m-1190 -20 c-13 -10 -14 -14
-5 -15 7 0 40 -16 73 -36 49 -30 57 -39 44 -46 -21 -12 -41 -5 -127 45 l-72
41 49 16 c55 18 67 17 38 -5z m862 15 c8 0 14 -4 14 -10 0 -15 -24 -12 -46 6
-17 14 -17 15 -1 10 10 -3 25 -6 33 -6z m554 -23 l25 -4 -26 -2 c-15 0 -33 7
-40 17 -12 15 -12 16 1 5 8 -6 26 -13 40 -16z m110 7 c0 -2 -7 -4 -15 -4 -8 0
-15 4 -15 10 0 5 7 7 15 4 8 -4 15 -8 15 -10z m-1375 -4 c3 -6 -1 -7 -9 -4
-18 7 -21 14 -7 14 6 0 13 -4 16 -10z m389 -15 c20 -8 36 -12 36 -8 0 5 4 3 8
-3 4 -5 24 -20 45 -33 42 -25 41 -33 -3 -51 -25 -11 -33 -10 -43 0 -10 10 -8
12 6 7 41 -15 3 11 -68 47 -55 27 -73 41 -63 47 19 13 41 11 82 -6z m-111 -2
c3 -5 -6 -9 -19 -9 -13 -1 -21 2 -18 7 6 11 31 12 37 2z m712 -43 c-2 -8 2
-20 7 -27 7 -8 3 -10 -11 -6 -21 5 -27 18 -13 26 4 2 2 2 -5 1 -6 -2 -23 8
-37 21 l-26 24 28 3 c30 3 60 -19 57 -42z m-971 31 c4 -5 -3 -7 -14 -4 -23 6
-26 13 -6 13 8 0 17 -4 20 -9z m223 -16 c20 -1 175 -89 163 -93 -8 -3 -16 0
-18 7 -2 6 -15 11 -28 11 -14 0 -27 7 -30 15 -4 8 -10 12 -15 9 -5 -3 -18 4
-30 15 -12 11 -30 18 -40 16 -11 -2 -17 0 -14 6 4 5 -1 9 -9 9 -17 0 -21 12
-9 23 4 4 10 2 14 -5 5 -7 12 -13 16 -13z m486 12 c6 -15 -27 -17 -40 -2 -5 4
-3 5 4 1 6 -3 14 -2 18 4 8 13 12 13 18 -3z m148 -5 c-7 -2 -18 1 -23 6 -8 8
-4 9 13 5 13 -4 18 -8 10 -11z m263 3 c-5 -13 -9 -13 -23 -3 -9 7 -18 14 -20
15 -2 2 8 3 22 3 20 0 25 -4 21 -15z m-64 -9 c0 -9 -10 -13 -25 -12 -14 0 -25
2 -25 4 0 2 36 19 48 21 1 1 2 -5 2 -13z m-516 -12 c3 -8 1 -14 -4 -14 -6 0
-10 5 -10 11 0 5 -4 8 -9 4 -5 -3 -12 -2 -15 3 -2 4 4 8 14 9 10 1 21 -5 24
-13z m-894 -3 c0 -12 56 -31 66 -23 4 4 4 2 0 -5 -3 -7 2 -14 14 -18 11 -3 20
-10 20 -14 0 -7 29 -8 50 -2 3 1 -8 12 -25 26 l-30 25 28 -11 c15 -7 27 -15
27 -19 0 -4 10 -10 23 -14 18 -5 19 -8 7 -15 -8 -5 -18 -7 -22 -5 -4 3 -22 -3
-38 -13 -24 -14 -34 -15 -48 -6 -58 40 -107 62 -137 61 -33 -1 -33 -1 -14 -21
10 -12 19 -25 19 -31 0 -5 3 -7 6 -3 4 3 13 0 21 -8 8 -8 23 -15 34 -15 11 0
17 -4 14 -10 -12 -19 -56 -10 -100 20 -24 17 -48 30 -52 30 -5 0 -18 6 -28 14
-18 13 -14 15 40 32 33 10 64 21 70 26 12 11 55 10 55 -1z m545 -11 c19 -11
39 -19 47 -18 7 2 12 -5 12 -14 -1 -9 4 -14 11 -12 7 3 15 -4 17 -14 5 -19 4
-19 -31 -5 -74 31 -111 54 -111 68 0 20 17 19 55 -5z m-701 -1 c-2 -4 -13 -5
-24 -2 -14 4 -20 0 -20 -11 0 -9 -4 -16 -10 -16 -13 0 -13 13 2 28 12 12 60
13 52 1z m610 -5 c3 -8 2 -12 -4 -9 -6 3 -10 10 -10 16 0 14 7 11 14 -7z m543
-19 c5 -4 2 -5 -4 -1 -7 4 -13 3 -13 -3 0 -5 8 -15 18 -20 9 -6 12 -11 6 -11
-6 0 -20 11 -32 23 -22 23 -22 24 -2 22 11 -1 23 -5 27 -10z m211 -23 c14 -14
17 -22 9 -22 -14 0 -57 33 -57 43 0 12 27 0 48 -21z m233 11 c8 -6 22 -12 32
-14 25 -5 17 -22 -11 -25 -12 -2 -20 1 -17 5 2 5 -5 17 -18 27 -22 19 -22 19
-6 -1 17 -20 15 -45 -2 -45 -6 0 -8 4 -4 9 6 10 -29 34 -37 26 -2 -2 -9 4 -15
13 -9 16 -7 18 27 17 21 0 44 -6 51 -12z m-1716 -13 c-3 -5 1 -10 9 -10 9 0
16 -7 16 -15 0 -9 10 -20 23 -25 12 -5 15 -9 7 -9 -19 0 -52 24 -43 32 3 4 -5
7 -19 7 -28 0 -29 -8 -9 -79 13 -47 10 -55 -29 -65 -21 -6 -23 -5 -10 6 16 14
20 61 8 74 -5 4 -8 2 -8 -4 0 -7 -4 -12 -10 -12 -21 0 -9 38 24 73 31 34 55
50 41 27z m1449 -26 c5 -12 1 -14 -15 -9 -14 5 -19 3 -15 -4 5 -7 1 -9 -8 -5
-9 3 -16 10 -16 16 0 5 4 7 8 4 4 -2 14 -1 22 5 19 11 17 12 24 -7z m721 -2
c-3 -3 -11 0 -18 7 -9 10 -8 11 6 5 10 -3 15 -9 12 -12z m-1565 -44 c49 -29
90 -56 90 -59 0 -4 -19 -12 -42 -18 -24 -7 -50 -14 -58 -17 -8 -3 -5 1 8 9 23
13 21 15 -60 62 -100 57 -96 54 -78 65 27 18 51 10 140 -42z m360 42 c0 -5 -9
-10 -20 -10 -11 0 -20 5 -20 10 0 6 9 10 20 10 11 0 20 -4 20 -10z m166 -26
c50 -22 62 -24 79 -13 18 11 19 10 7 -4 -12 -14 -9 -18 15 -31 19 -9 34 -11
44 -5 12 6 47 -7 122 -44 58 -28 106 -55 107 -59 0 -3 -26 -14 -57 -23 -32 -9
-67 -21 -77 -27 -15 -8 -22 -7 -31 5 -7 10 -15 13 -21 7 -13 -13 -147 -61
-153 -54 -3 3 0 9 7 13 15 9 -27 31 -58 31 -11 0 -20 7 -20 15 0 8 -19 24 -42
36 -38 19 -40 23 -24 34 16 12 11 17 -50 51 -62 35 -65 38 -43 46 13 5 26 13
29 19 4 5 24 12 45 14 21 3 41 8 44 10 8 8 16 6 77 -21z m541 20 c-3 -3 -12
-4 -19 -1 -8 3 -5 6 6 6 11 1 17 -2 13 -5z m-772 -22 c-3 -3 -11 0 -18 7 -9
10 -8 11 6 5 10 -3 15 -9 12 -12z m823 5 c9 -10 3 -12 -26 -8 -34 4 -35 5 -12
12 14 4 26 7 26 8 1 1 6 -5 12 -12z m-1604 -5 c3 -5 -1 -9 -9 -9 -8 0 -12 4
-9 9 3 4 7 8 9 8 2 0 6 -4 9 -8z m1153 -16 c-8 -9 -14 -10 -23 -2 -14 13 2 27
22 19 10 -4 10 -8 1 -17z m233 13 c0 -11 157 -89 164 -82 3 4 6 2 6 -4 0 -6
-25 -19 -56 -29 l-56 -17 -67 33 c-36 18 -81 42 -100 53 l-34 20 44 18 c43 17
99 21 99 8z m139 -18 c0 -10 -2 -11 -6 -3 -2 6 -11 12 -19 12 -8 0 -14 4 -14
9 0 5 9 7 20 4 11 -3 20 -13 19 -22z m138 17 c15 -6 31 -12 35 -12 3 -1 9 -4
13 -8 4 -4 13 -4 20 -1 8 2 20 -5 27 -16 7 -12 20 -21 30 -21 25 0 49 -11 43
-20 -6 -10 24 -35 32 -26 4 4 1 11 -7 16 -13 8 -13 10 1 10 9 0 19 -7 23 -15
3 -8 15 -15 27 -15 21 0 21 1 -5 25 -15 14 -31 23 -35 21 -4 -3 -8 1 -8 8 0 9
10 11 39 6 21 -4 38 -5 38 -3 0 2 5 1 10 -2 19 -12 0 -25 -21 -15 -12 7 -19 7
-19 1 0 -10 41 -36 49 -33 10 5 8 -48 -2 -55 -19 -12 -47 -11 -57 2 -6 7 -21
11 -35 9 -14 -1 -25 2 -25 7 0 17 -73 74 -91 71 -9 -2 -20 2 -24 7 -3 6 -20 8
-37 4 -22 -4 -29 -3 -24 6 4 7 -2 15 -16 20 -13 6 -17 10 -9 10 11 1 11 4 1
16 -15 18 -10 19 27 3z m-1002 -28 c3 -5 2 -10 -4 -10 -5 0 -13 5 -16 10 -3 6
-2 10 4 10 5 0 13 -4 16 -10z m575 6 c0 -3 -4 -8 -10 -11 -5 -3 -10 -1 -10 4
0 6 5 11 10 11 6 0 10 -2 10 -4z m-1180 -11 c0 -10 -41 -25 -52 -19 -8 5 -5
10 8 15 22 9 44 11 44 4z m1555 -23 c5 0 11 -6 14 -13 2 -7 -1 -9 -9 -4 -8 5
-11 3 -8 -6 3 -8 12 -13 22 -11 9 2 16 -2 16 -8 0 -5 -6 -9 -12 -7 -8 1 -12
-6 -10 -17 3 -18 3 -18 -15 -1 -10 10 -18 21 -19 24 -3 19 -17 40 -25 35 -5
-3 -6 2 -3 10 4 11 11 13 22 7 10 -5 21 -9 27 -9z m-1523 -19 c-10 -4 -9 -10
5 -26 l18 -21 -26 20 c-29 20 -29 35 -1 33 11 0 13 -2 4 -6z m1585 1 c-3 -3
-12 -4 -19 -1 -8 3 -5 6 6 6 11 1 17 -2 13 -5z m73 -44 c0 -9 -3 -11 -8 -5 -9
13 -62 17 -62 4 0 -5 -8 -9 -17 -9 -15 0 -14 2 3 15 10 8 15 15 9 15 -5 1 -1
5 9 9 24 9 66 -9 66 -29z m260 6 c0 -3 -4 -8 -10 -11 -5 -3 -10 -1 -10 4 0 6
5 11 10 11 6 0 10 -2 10 -4z m-2169 -33 l1 -28 8 25 c7 21 8 21 9 5 0 -11 -3
-26 -8 -34 -7 -11 -11 -10 -20 7 -14 26 -14 52 -1 52 6 0 10 -12 11 -27z m539
7 c-8 -5 -19 -10 -25 -10 -5 0 -3 5 5 10 8 5 20 10 25 10 6 0 3 -5 -5 -10z
m505 0 c3 -5 0 -7 -8 -4 -8 3 -18 1 -21 -5 -4 -5 3 -12 14 -16 11 -4 17 -11
14 -17 -5 -7 -1 -9 9 -5 9 3 21 -1 29 -11 11 -13 11 -14 -1 -7 -9 5 -12 4 -7
-3 4 -6 13 -9 20 -6 8 3 29 -3 48 -12 18 -10 39 -17 47 -15 21 4 2 -19 -25
-29 -14 -6 -24 -18 -24 -30 0 -11 -4 -20 -10 -20 -5 0 -7 7 -4 15 5 12 0 14
-22 10 -23 -5 -48 5 -113 45 -46 27 -88 50 -93 50 -4 0 -8 4 -8 9 0 5 26 17
58 27 31 9 61 21 67 26 12 11 22 10 30 -2z m-704 -17 c13 -17 13 -17 -6 -3
-11 8 -22 16 -24 17 -2 2 0 3 6 3 6 0 17 -8 24 -17z m410 -35 l88 -52 -36 -12
c-20 -7 -41 -10 -46 -7 -6 3 -7 1 -3 -5 4 -7 12 -12 17 -12 6 0 36 -16 67 -36
l57 -35 -40 35 c-22 19 -47 36 -55 36 -8 1 -2 6 13 12 21 8 33 6 52 -6 13 -9
31 -16 40 -16 9 0 13 -4 10 -10 -3 -5 15 -19 40 -31 25 -12 45 -24 45 -28 0
-7 -98 -51 -112 -51 -4 0 -33 -12 -63 -26 -31 -14 -60 -24 -64 -22 -4 2 -49
30 -100 63 l-93 60 33 13 c30 12 35 11 83 -21 52 -35 130 -77 141 -77 3 0 4 4
1 9 -3 4 7 6 22 4 26 -4 26 -4 7 12 -11 8 -25 13 -33 10 -7 -2 -10 0 -7 5 6
10 -71 64 -106 75 -10 4 -16 12 -13 20 3 8 -4 19 -18 26 -45 24 -148 92 -144
96 4 5 84 20 110 22 11 1 59 -22 107 -51z m-271 28 c-7 -7 -13 -7 -20 0 -6 6
-3 10 10 10 13 0 16 -4 10 -10z m-60 -6 c-8 -5 -22 -9 -30 -9 -10 0 -8 3 5 9
27 12 43 12 25 0z m-388 -33 c-5 -7 -12 -19 -14 -27 -5 -12 -7 -12 -13 3 -4
10 -2 24 5 32 14 17 36 9 22 -8z m1728 3 c0 -5 -5 -10 -11 -10 -5 0 -7 5 -4
10 3 6 8 10 11 10 2 0 4 -4 4 -10z m-1158 -50 c61 -37 77 -51 64 -56 -19 -7
-178 84 -170 98 9 15 25 9 106 -42z m1188 0 c0 -5 -4 -10 -10 -10 -5 0 -10 5
-10 10 0 6 5 10 10 10 6 0 10 -4 10 -10z m-455 -10 c-4 -6 6 -16 22 -23 15 -7
58 -29 94 -50 41 -23 73 -35 83 -31 16 6 15 8 -1 28 -18 21 -18 21 2 5 11 -9
26 -18 34 -21 8 -2 -9 -14 -38 -27 -29 -12 -60 -20 -68 -16 -9 3 -61 31 -117
62 l-101 57 40 12 c51 16 58 16 50 4z m69 -8 c3 -5 -1 -9 -9 -9 -8 0 -12 4 -9
9 3 4 7 8 9 8 2 0 6 -4 9 -8z m49 -25 c4 3 7 1 7 -5 0 -21 -28 -12 -33 11 -5
20 -5 20 7 5 7 -10 16 -15 19 -11z m382 4 c3 -5 2 -12 -3 -15 -5 -3 -9 1 -9 9
0 17 3 19 12 6z m-600 -31 c17 -19 17 -19 -8 -7 -14 6 -23 15 -21 19 7 11 9
10 29 -12z m-138 -12 c-3 -8 -6 -5 -6 6 -1 11 2 17 5 13 3 -3 4 -12 1 -19z
m-736 -5 c34 -20 36 -29 9 -38 -14 -5 -32 2 -55 20 -19 14 -35 28 -35 31 0 11
55 2 81 -13z m-194 -91 c51 -51 57 -66 10 -25 -43 37 -97 102 -97 117 0 6 10
-2 22 -19 12 -16 42 -49 65 -73z m1183 49 c0 -8 6 -11 16 -7 19 7 57 -11 49
-24 -4 -6 1 -7 11 -3 12 4 15 3 10 -5 -11 -18 -31 -14 -80 16 -25 15 -46 36
-49 49 -4 21 -3 21 19 5 13 -9 24 -23 24 -31z m-695 -28 c49 -31 92 -58 95
-60 7 -6 -23 -23 -41 -23 -9 0 -59 27 -110 61 -69 45 -89 63 -78 70 25 16 42
10 134 -48z m-125 -183 c0 -5 -2 -10 -4 -10 -3 0 -8 5 -11 10 -3 6 -1 10 4 10
6 0 11 -4 11 -10z m690 -35 c21 -11 30 -23 30 -40 0 -37 -14 -38 -70 -1 -46
30 -50 35 -33 45 25 14 39 14 73 -4z m146 -16 c30 -17 54 -34 54 -38 0 -16
-46 -29 -66 -18 -76 42 -95 58 -84 73 18 21 36 18 96 -17z m-255 -51 c48 -29
50 -32 33 -45 -26 -19 -40 -17 -94 20 -48 33 -49 34 -28 45 33 15 32 15 89
-20z m688 -39 c67 -39 121 -75 121 -80 0 -5 -12 -12 -27 -15 -16 -4 -51 -20
-80 -35 -30 -16 -55 -24 -58 -19 -3 6 2 10 13 10 33 0 32 12 -1 29 -52 28
-126 71 -174 101 l-44 28 48 25 c26 14 56 26 65 26 9 1 71 -31 137 -70z m-809
5 c0 -8 -4 -12 -10 -9 -5 3 -10 10 -10 16 0 5 5 9 10 9 6 0 10 -7 10 -16z
m537 -6 c-15 -8 -16 -12 -5 -26 10 -12 7 -11 -15 3 l-29 18 29 12 c32 14 47 9
20 -7z m-315 -16 c2 -4 25 -21 52 -39 l50 -32 -36 -17 -36 -17 -62 41 -62 40
28 16 c31 17 60 20 66 8z m238 -45 c16 -8 25 -21 24 -35 -1 -12 3 -19 7 -16 5
3 7 10 4 15 -10 15 12 10 26 -7 10 -13 10 -17 -2 -25 -8 -5 -9 -9 -3 -9 5 0
14 4 20 10 6 6 31 -3 72 -27 34 -20 62 -40 62 -43 0 -4 -12 -12 -26 -19 -24
-11 -36 -6 -148 66 -66 42 -123 78 -126 80 -8 7 24 23 45 23 11 0 31 -6 45
-13z m-285 -27 c4 0 18 -9 32 -20 14 -11 37 -20 52 -20 17 0 22 -3 13 -9 -7
-4 -12 -12 -11 -17 5 -30 -7 -29 -61 8 -47 33 -60 47 -60 67 1 24 2 25 14 9 7
-10 16 -18 21 -18z m-208 4 c14 -4 20 -11 16 -21 -4 -10 0 -14 13 -11 17 3 19
-4 19 -52 0 -30 -1 -59 -3 -63 -2 -4 -19 3 -37 17 -18 14 -35 22 -37 17 -4
-12 -37 -18 -36 -7 0 5 -14 18 -32 29 -17 11 -29 22 -26 24 3 3 19 -5 36 -17
16 -12 36 -20 42 -18 7 3 -10 19 -36 37 -26 18 -46 34 -44 36 4 3 91 34 98 34
3 1 15 -2 27 -5z m1698 -21 c-4 -10 -8 -23 -9 -29 -2 -16 -26 -44 -36 -44 -14
0 1 65 18 78 23 17 35 15 27 -5z m-1845 -13 c0 -5 -5 -10 -11 -10 -5 0 -7 5
-4 10 3 6 8 10 11 10 2 0 4 -4 4 -10z m490 0 c0 -5 -5 -10 -11 -10 -5 0 -7 5
-4 10 3 6 8 10 11 10 2 0 4 -4 4 -10z m600 -45 c-7 -8 -17 -15 -22 -15 -6 0
-5 7 2 15 7 8 17 15 22 15 6 0 5 -7 -2 -15z m954 -6 c-8 -14 -24 -10 -24 6 0
9 6 12 15 9 8 -4 12 -10 9 -15z m-1144 -3 c0 -2 -8 -10 -17 -17 -16 -13 -17
-12 -4 4 13 16 21 21 21 13z m1100 -12 c0 -8 -4 -13 -9 -10 -5 3 -12 -4 -16
-17 -4 -14 -8 -17 -12 -9 -3 7 3 22 13 33 21 23 24 24 24 3z m-1810 -75 c0 -5
-13 -2 -30 8 -16 9 -30 21 -30 25 0 5 14 2 30 -7 17 -9 30 -20 30 -26z m1900
17 c0 -7 -9 -16 -20 -19 -20 -5 -24 12 -5 25 15 12 25 9 25 -6z m-372 -31 c-1
-26 -6 -35 -19 -35 -9 0 -20 -6 -23 -12 -3 -7 -4 5 -3 27 1 26 6 39 15 38 6
-2 12 2 12 7 0 6 4 10 10 10 5 0 9 -16 8 -35z m316 10 c-4 -8 -11 -15 -16 -15
-6 0 -5 6 2 15 7 8 14 15 16 15 2 0 1 -7 -2 -15z m-1629 -48 c26 -18 41 -37
42 -53 1 -13 -1 -24 -3 -24 -14 0 -94 65 -94 76 0 7 -3 20 -7 30 -7 20 -2 17
62 -29z m1575 13 c0 -5 -9 -14 -20 -20 -16 -8 -20 -8 -18 2 5 23 38 39 38 18z
m110 -9 c0 -9 -22 -31 -32 -31 -18 0 -7 36 12 37 11 1 20 -2 20 -6z m-170 -30
c-12 -24 -26 -27 -32 -9 -3 7 5 18 16 24 27 14 30 11 16 -15z m-1363 -22 c4
-14 12 -19 24 -16 11 3 17 1 13 -4 -10 -16 -36 -10 -41 10 -3 11 -12 22 -22
24 -13 4 -13 5 2 6 11 1 21 -8 24 -20z m1298 -15 c-17 -13 -35 -11 -35 4 0 4
10 12 23 17 28 13 37 -3 12 -21z m180 16 c-3 -5 -13 -10 -21 -10 -8 0 -12 5
-9 10 3 6 13 10 21 10 8 0 12 -4 9 -10z m-1445 -61 c71 -57 117 -82 126 -68 4
7 3 9 -3 6 -5 -3 -21 7 -36 23 -27 28 -36 47 -17 35 6 -3 10 -1 10 4 0 6 -5
11 -12 11 -6 0 -9 3 -6 6 9 9 49 -16 43 -26 -3 -5 0 -12 6 -16 8 -4 9 -3 5 4
-4 7 -2 12 4 12 7 0 9 -8 5 -20 -4 -11 -2 -20 4 -20 6 0 11 -10 11 -22 0 -13
4 -56 10 -97 6 -40 9 -76 6 -78 -5 -5 -220 142 -235 161 -5 6 -11 41 -13 77
l-4 67 26 -11 c14 -7 45 -28 70 -48z m46 39 c4 -6 3 -8 -4 -4 -6 3 -13 2 -17
-3 -3 -5 3 -14 12 -20 10 -6 14 -10 8 -11 -20 0 -35 17 -29 33 7 20 20 22 30
5z m1597 -79 c92 -50 167 -95 167 -100 0 -5 -18 -18 -39 -29 -22 -11 -42 -24
-46 -30 -13 -22 -51 -6 -212 86 -93 53 -170 98 -172 100 -4 4 111 63 125 64 6
0 86 -41 177 -91z m-423 77 c0 -3 -11 -17 -25 -32 -21 -22 -25 -24 -25 -9 0
10 8 24 18 31 17 13 32 18 32 10z m140 -10 c0 -3 -4 -8 -10 -11 -5 -3 -10 -1
-10 4 0 6 5 11 10 11 6 0 10 -2 10 -4z m-200 -25 c0 -12 -29 -41 -41 -41 -18
0 -9 27 14 38 28 14 27 14 27 3z m170 4 c0 -2 -9 -9 -20 -15 -12 -6 -20 -7
-20 -1 0 5 8 12 18 14 9 3 18 5 20 6 1 0 2 -1 2 -4z m-96 -26 c-5 -9 1 -10 22
-5 27 6 28 5 10 -8 -10 -9 -24 -17 -30 -19 -6 -2 -8 -8 -4 -12 4 -4 19 0 34
10 24 15 26 16 21 1 -4 -11 1 -18 18 -22 14 -3 25 -10 25 -14 0 -13 61 -41 73
-33 6 3 7 1 3 -5 -4 -7 -1 -12 7 -12 8 0 43 -19 77 -41 34 -23 75 -42 90 -43
21 -1 26 -4 18 -13 -14 -17 2 -17 36 0 14 8 23 17 19 21 -4 4 0 4 10 0 15 -5
14 -8 -7 -25 -13 -10 -29 -19 -35 -19 -6 0 -11 -4 -11 -8 0 -5 -10 -13 -23
-19 -18 -8 -22 -18 -21 -47 1 -20 -3 -39 -8 -42 -6 -4 -6 -9 2 -14 8 -5 9 -10
1 -14 -17 -11 -25 42 -10 62 13 15 12 16 -3 3 -10 -7 -18 -20 -18 -27 0 -8 -5
-14 -11 -14 -5 0 -7 5 -4 10 9 15 0 12 -39 -11 -41 -24 -20 -33 -249 108 -93
58 -170 103 -171 101 -1 -2 -7 -14 -14 -28 l-12 -25 7 25 c3 14 6 31 6 38 0 7
13 20 29 28 15 8 28 12 28 9 0 -3 9 4 20 15 11 11 26 20 34 20 7 0 19 7 26 15
7 8 18 15 24 15 6 0 3 -7 -7 -14 -10 -8 -14 -17 -9 -20 14 -8 33 18 37 51 5
35 4 33 11 33 3 0 2 -5 -2 -11z m95 -20 c-22 -14 -33 -10 -19 6 7 8 17 12 22
9 6 -4 5 -10 -3 -15z m-250 -19 c-22 -14 -34 2 -13 17 13 10 20 10 23 2 2 -6
-3 -15 -10 -19z m-527 -21 c45 -29 65 -48 69 -67 7 -37 1 -50 -32 -68 -25 -13
-30 -13 -35 0 -3 8 -34 33 -69 55 -50 32 -64 47 -67 71 -4 25 0 31 21 39 41
15 47 13 113 -30z m858 5 c0 -2 -13 2 -30 11 -16 9 -30 18 -30 21 0 2 14 -2
30 -11 17 -9 30 -18 30 -21z m-750 22 c0 -2 -7 -7 -16 -10 -8 -3 -12 -2 -9 4
6 10 25 14 25 6z m365 -30 c-9 -13 -23 -27 -32 -30 -13 -5 -14 -4 -3 9 7 8 9
15 4 15 -10 0 28 29 39 30 4 0 0 -11 -8 -24z m-835 -12 c0 -8 -4 -12 -10 -9
-5 3 -10 10 -10 16 0 5 5 9 10 9 6 0 10 -7 10 -16z m779 -11 c-20 -25 -32 -33
-42 -26 -6 3 1 14 14 24 31 24 46 24 28 2z m485 9 c3 -5 -1 -9 -9 -9 -8 0 -12
4 -9 9 3 4 7 8 9 8 2 0 6 -4 9 -8z m-714 -38 c0 -8 -4 -12 -10 -9 -5 3 -10 10
-10 16 0 5 5 9 10 9 6 0 10 -7 10 -16z m164 -9 c-9 -22 -41 -38 -47 -22 -2 6
6 17 17 23 29 17 36 16 30 -1z m-201 -15 c-3 -11 -7 -20 -9 -20 -2 0 -4 9 -4
20 0 11 4 20 9 20 5 0 7 -9 4 -20z m-23 0 c0 -5 -5 -10 -11 -10 -7 0 -18 -8
-25 -17 -13 -17 -14 -17 -7 2 10 29 43 48 43 25z m154 -22 c-7 -22 -21 -38
-36 -38 -14 0 -4 24 17 42 26 23 28 22 19 -4z m196 18 c0 -2 -7 -7 -16 -10 -8
-3 -12 -2 -9 4 6 10 25 14 25 6z m-350 -26 c0 -5 -5 -10 -11 -10 -5 0 -7 5 -4
10 3 6 8 10 11 10 2 0 4 -4 4 -10z m88 -30 c-13 -20 -28 -27 -28 -12 0 10 22
32 32 32 5 0 3 -9 -4 -20z m178 5 c-11 -8 -25 -15 -30 -15 -6 0 -2 7 8 15 11
8 25 15 30 15 6 0 2 -7 -8 -15z m914 -22 c0 -5 -5 -15 -10 -23 -7 -12 -9 -10
-7 8 1 19 17 33 17 15z m-984 -18 c-11 -8 -22 -12 -25 -9 -6 6 19 24 34 24 6
-1 1 -7 -9 -15z m951 -7 c-3 -8 -6 -5 -6 6 -1 11 2 17 5 13 3 -3 4 -12 1 -19z
m-1133 -3 c-7 -17 -20 -20 -28 -6 -4 5 0 12 6 14 23 9 28 7 22 -8z m-61 -30
c-20 -27 -29 -30 -38 -15 -3 6 -1 10 5 10 6 0 18 7 26 15 23 23 27 18 7 -10z
m177 11 c0 -3 -4 -8 -10 -11 -5 -3 -10 -1 -10 4 0 6 5 11 10 11 6 0 10 -2 10
-4z m170 -11 c0 -17 -35 -50 -53 -50 -9 0 -13 -34 -15 -118 -2 -104 -5 -117
-18 -107 -12 11 -13 10 -8 -4 3 -9 1 -16 -5 -16 -6 0 -11 -8 -11 -17 0 -15 2
-16 10 -3 7 11 10 -2 10 -42 0 -35 -4 -58 -11 -58 -6 0 -8 10 -5 23 3 12 3 16
0 10 -8 -19 -28 -16 -49 7 -10 11 -23 20 -29 20 -6 0 -23 10 -38 23 -53 43
-115 87 -123 87 -12 0 -45 31 -45 42 0 5 4 7 9 4 5 -4 11 -2 13 2 4 10 231
142 245 142 6 0 16 7 23 15 7 8 26 15 42 15 16 0 27 4 23 9 -3 6 3 14 12 20
23 13 23 14 23 -4z m-428 -29 c15 4 19 2 16 -7 -5 -15 -36 -13 -55 3 -7 6 -10
15 -7 20 4 6 11 4 16 -6 6 -11 16 -15 30 -10z m208 9 c-7 -8 -18 -15 -24 -15
-6 0 -2 7 8 15 25 19 32 19 16 0z m1779 -106 c129 -69 157 -80 172 -71 23 15
29 15 29 2 0 -5 -7 -10 -15 -10 -32 0 -12 -19 60 -55 41 -20 75 -40 75 -44 0
-10 -48 -51 -59 -51 -4 0 -16 -9 -26 -20 -28 -31 -21 -33 -200 65 -38 21 -92
51 -118 67 -26 15 -49 28 -51 28 -6 0 -152 86 -156 92 -3 4 24 28 59 53 36 25
67 41 71 36 3 -5 74 -47 159 -92z m-2009 56 c0 -8 -2 -15 -4 -15 -2 0 -6 7
-10 15 -3 8 -1 15 4 15 6 0 10 -7 10 -15z m154 0 c-25 -19 -40 -19 -24 0 7 8
20 15 28 15 13 0 12 -3 -4 -15z m1059 -24 c-4 -16 -8 -19 -14 -10 -4 7 -3 19
3 26 14 18 19 12 11 -16z m290 4 c-3 -9 -8 -14 -10 -11 -3 3 -2 9 2 15 9 16
15 13 8 -4z m-1403 0 c0 -2 -9 -9 -20 -15 -12 -6 -20 -7 -20 -1 0 5 8 12 18
14 9 3 18 5 20 6 1 0 2 -1 2 -4z m1179 -14 c18 -14 21 -20 11 -26 -9 -5 -11
-4 -6 3 5 8 0 12 -13 12 -10 0 -21 -5 -23 -11 -2 -7 -10 -10 -17 -8 -11 4 -10
8 3 21 12 12 13 18 3 21 -8 4 -7 6 3 6 8 0 26 -8 39 -18z m-312 -6 c0 -8 -4
-15 -9 -15 -4 0 -8 7 -8 15 0 8 4 15 8 15 5 0 9 -7 9 -15z m220 -4 c9 -15 102
-76 138 -90 6 -2 29 -17 53 -33 23 -16 42 -26 42 -23 0 3 25 -12 56 -32 54
-36 57 -37 70 -18 9 12 17 16 24 9 12 -12 -59 -66 -151 -119 -24 -13 -28 -13
-44 5 -11 12 -13 20 -7 20 7 0 12 -4 12 -8 0 -4 9 -8 20 -9 11 -1 20 4 20 12
0 8 5 17 12 21 7 5 8 3 3 -6 -6 -9 -4 -11 5 -5 23 14 -30 42 -71 37 -4 -1 -6
6 -5 15 0 8 -7 17 -17 19 -10 1 -26 9 -35 17 -10 9 -30 19 -45 23 -16 3 -31
13 -34 21 -3 8 -11 12 -18 9 -6 -2 -18 0 -26 6 -11 8 -10 9 4 4 30 -10 18 2
-38 39 -57 36 -75 42 -75 26 0 -5 -8 -12 -17 -14 -10 -2 -5 -3 10 -2 15 1 30
-2 33 -7 3 -5 2 -8 -3 -7 -24 4 -23 -4 3 -26 31 -27 44 -31 44 -15 0 6 -6 10
-12 10 -9 0 -8 4 2 10 22 15 29 12 27 -10 -1 -11 -6 -20 -12 -20 -5 0 -3 -5 5
-10 8 -6 27 -7 41 -4 19 3 28 0 33 -12 5 -14 4 -15 -9 -4 -12 10 -15 10 -15
-3 0 -9 10 -19 21 -22 27 -9 110 -67 104 -73 -2 -2 -46 21 -97 53 -214 133
-206 129 -233 115 -14 -7 -25 -19 -25 -25 0 -7 28 -29 63 -50 34 -21 108 -67
164 -102 56 -34 106 -63 112 -63 5 0 12 -6 14 -12 4 -8 8 -4 12 10 7 21 25 31
25 14 0 -12 -77 -82 -90 -82 -6 0 -27 -12 -45 -26 -26 -19 -37 -23 -47 -14 -7
6 -42 29 -78 52 -36 22 -112 72 -170 109 -57 38 -109 71 -115 73 -17 8 40 49
152 113 45 25 91 54 102 64 20 19 82 59 91 59 3 0 10 -8 17 -19z m269 -17
c-11 -7 -22 -11 -25 -8 -3 3 3 12 13 20 11 7 22 11 25 8 3 -3 -3 -12 -13 -20z
m774 16 c0 -5 -5 -10 -11 -10 -5 0 -7 5 -4 10 3 6 8 10 11 10 2 0 4 -4 4 -10z
m-2190 -8 c0 -16 -42 -34 -53 -23 -8 8 -5 11 11 11 12 0 22 5 22 10 0 6 5 10
10 10 6 0 10 -3 10 -8z m800 -1 c0 -5 -7 -12 -16 -15 -14 -5 -15 -4 -4 9 14
17 20 19 20 6z m57 -13 c-3 -8 -6 -5 -6 6 -1 11 2 17 5 13 3 -3 4 -12 1 -19z
m28 3 c3 -5 1 -12 -5 -16 -5 -3 -10 1 -10 9 0 18 6 21 15 7z m466 -18 c22 6
23 3 9 -23 -8 -15 -7 -18 3 -14 7 2 44 -13 81 -35 72 -42 92 -57 62 -45 -15 6
-17 4 -11 -7 7 -11 6 -12 -6 -2 -8 6 -18 11 -22 11 -5 0 -12 4 -15 8 -4 4 -1
4 6 0 6 -4 12 -3 12 2 0 6 -7 12 -15 16 -8 3 -15 1 -15 -3 0 -14 -32 -23 -43
-12 -7 7 -2 13 14 19 l24 9 -33 17 c-18 9 -38 14 -44 10 -6 -4 -17 1 -24 11
-8 11 -29 19 -51 21 -21 2 -40 3 -42 3 -2 1 4 10 14 21 16 18 19 18 47 4 17
-9 39 -14 49 -11z m-1466 7 c-3 -5 -1 -10 6 -10 7 0 10 -3 6 -6 -9 -9 -28 6
-22 17 4 5 8 9 11 9 3 0 2 -4 -1 -10z m2316 -34 c5 3 9 0 9 -5 0 -6 -7 -11
-15 -11 -8 0 -15 8 -14 18 0 10 3 12 6 4 2 -6 9 -10 14 -6z m102 0 c4 -10 1
-13 -8 -9 -8 3 -12 9 -9 14 7 12 11 11 17 -5z m-2343 -16 c0 -5 -5 -10 -11
-10 -5 0 -7 5 -4 10 3 6 8 10 11 10 2 0 4 -4 4 -10z m2285 -8 c-3 -3 -11 0
-18 7 -9 10 -8 11 6 5 10 -3 15 -9 12 -12z m-2246 -6 c10 -11 8 -16 -9 -21
-23 -7 -44 5 -22 12 6 3 10 9 6 14 -9 15 12 10 25 -5z m782 -57 l-10 -24 0 26
c-1 14 2 29 6 33 12 12 14 -9 4 -35z m-729 8 c21 -20 71 -52 91 -57 23 -6 24
-22 1 -35 -12 -7 -18 -6 -22 5 -5 14 -13 21 -77 75 -16 14 -25 25 -18 25 6 0
18 -6 25 -13z m1743 -64 c50 -28 137 -78 194 -110 57 -32 104 -62 104 -68 0
-5 -11 -18 -26 -29 -25 -19 -26 -19 -69 8 -24 15 -119 71 -212 125 -94 53
-171 102 -173 107 -2 5 9 17 24 26 23 14 31 15 48 4 11 -7 61 -35 110 -63z
m-235 25 c0 -13 -23 -5 -28 10 -2 7 2 10 12 6 9 -3 16 -11 16 -16z m-295 -8
c3 -5 2 -10 -4 -10 -5 0 -13 5 -16 10 -3 6 -2 10 4 10 5 0 13 -4 16 -10z m329
-17 c-1 -16 -7 -27 -13 -25 -29 6 6 -19 106 -78 125 -73 137 -79 104 -52 -18
14 -21 21 -11 27 14 9 40 -19 40 -42 0 -17 34 -35 46 -23 13 13 54 1 55 -16 3
-27 4 -32 11 -39 3 -4 5 5 4 19 -3 25 -2 25 14 11 9 -8 26 -15 38 -15 30 0 28
-14 -5 -36 -15 -9 -48 -36 -73 -58 -25 -23 -66 -56 -91 -74 l-47 -32 -178 112
c-99 61 -198 123 -222 138 l-42 26 131 92 c73 51 132 92 133 92 1 0 1 -12 0
-27z m-1257 -30 c-3 -10 -5 -4 -5 12 0 17 2 24 5 18 2 -7 2 -21 0 -30z m-91
-42 c32 -22 62 -37 66 -35 5 3 8 -4 8 -15 0 -28 -19 -26 -50 4 -14 14 -43 41
-65 61 -47 42 -40 39 41 -15z m160 22 c21 -14 79 -54 128 -87 48 -34 97 -65
108 -71 20 -11 32 -41 26 -72 -2 -17 -26 -4 -158 86 -145 100 -155 108 -156
139 0 17 3 32 6 32 4 0 25 -12 46 -27z m1230 13 c10 -8 16 -17 13 -21 -9 -8
-59 16 -53 26 7 13 17 11 40 -5z m69 -45 c19 -10 31 -22 27 -26 -4 -5 1 -5 10
-2 10 3 20 2 23 -3 3 -4 -7 -7 -21 -5 -14 1 -30 8 -34 15 -4 6 -10 11 -14 10
-4 0 -14 6 -22 15 -20 20 -11 19 31 -4z m1818 -187 c138 -70 258 -131 264
-136 10 -8 9 -17 -4 -42 -10 -17 -18 -33 -18 -36 -1 -3 -5 -13 -9 -22 -13 -28
-27 -21 -16 8 6 14 10 27 10 29 0 3 -10 8 -315 165 -110 56 -204 106 -209 111
-10 9 20 49 36 49 4 0 122 -57 261 -126z m-1663 96 c0 -5 -4 -10 -10 -10 -5 0
-10 5 -10 10 0 6 5 10 10 10 6 0 10 -4 10 -10z m502 -95 c68 -38 141 -78 163
-89 22 -11 42 -23 45 -27 3 -5 31 -20 63 -34 60 -28 65 -33 45 -53 -19 -19
-37 -15 -122 35 -45 26 -90 51 -101 57 -85 47 -295 169 -295 173 0 3 10 13 22
23 20 16 23 16 40 1 10 -10 73 -48 140 -86z m-1632 39 c0 -8 -4 -12 -10 -9 -5
3 -10 13 -10 21 0 8 5 12 10 9 6 -3 10 -13 10 -21z m1658 -136 c136 -77 249
-143 251 -144 2 -2 -1 -10 -7 -17 -7 -8 -8 -18 -4 -22 4 -5 1 -5 -6 -1 -17 10
-52 -21 -52 -44 0 -19 -30 -82 -30 -65 0 6 -4 3 -10 -5 -5 -8 -12 -12 -15 -8
-3 3 0 12 7 19 7 8 20 23 28 33 14 18 14 18 -6 6 -19 -11 -28 -9 -78 19 -69
40 -74 34 -6 -8 46 -28 50 -34 44 -59 -9 -37 -24 -63 -32 -58 -4 3 -14 -9 -21
-26 -9 -20 -16 -26 -21 -18 -4 7 -12 10 -17 7 -5 -4 -33 9 -62 28 -29 19 -54
35 -56 35 -2 0 -60 35 -129 78 -69 42 -150 92 -180 109 l-53 33 8 46 c13 69
60 101 104 70 11 -7 79 -47 150 -88 72 -41 147 -85 168 -97 20 -13 37 -21 37
-18 0 3 -86 56 -190 118 -105 63 -189 117 -188 121 3 7 108 95 116 97 2 1 114
-63 250 -141z m585 77 c-3 -9 -8 -14 -10 -11 -3 3 -2 9 2 15 9 16 15 13 8 -4z
m-8 -33 c-3 -3 -11 0 -18 7 -9 10 -8 11 6 5 10 -3 15 -9 12 -12z m124 -169
c-39 -47 -79 -87 -79 -78 0 6 -11 -7 -24 -27 -12 -21 -25 -35 -28 -32 -3 3
-16 -9 -28 -25 -12 -17 -27 -31 -33 -31 -7 0 -21 -16 -32 -36 -11 -20 -21 -31
-23 -25 -4 11 -31 -15 -32 -30 0 -6 103 -70 230 -143 105 -60 167 -97 179
-105 12 -8 8 -17 -22 -50 -20 -23 -37 -48 -37 -56 0 -8 -16 -31 -36 -50 -20
-20 -33 -39 -30 -42 3 -3 14 5 25 18 11 13 20 21 21 16 0 -4 13 7 29 25 16 18
32 30 36 26 4 -4 -3 -15 -14 -25 -12 -9 -21 -24 -21 -32 0 -10 12 -3 34 18 28
27 34 30 40 16 4 -10 2 -14 -6 -9 -7 4 -8 3 -4 -5 6 -9 11 -9 21 -1 9 7 16 6
25 -5 10 -12 10 -15 -1 -15 -9 0 -10 -3 -3 -8 17 -11 24 -41 12 -48 -6 -4 -8
-3 -4 4 7 12 -9 25 -39 29 -11 2 -23 10 -28 18 -4 9 -12 13 -18 10 -12 -8 -12
-42 1 -50 6 -3 7 1 4 9 -8 21 5 20 28 -1 19 -17 25 -39 8 -28 -6 3 -7 -1 -3
-10 5 -14 0 -16 -30 -11 l-35 6 26 -29 27 -28 23 24 c12 14 19 29 16 35 -4 6
-2 8 4 5 5 -4 22 7 37 25 25 29 25 33 9 38 -16 6 -16 7 4 12 12 4 20 2 16 -3
-14 -23 14 -5 36 23 14 17 43 52 65 76 22 24 44 51 48 58 4 8 12 14 17 14 9 0
-19 -60 -33 -71 -4 -3 -5 -13 -2 -22 7 -17 -22 -37 -42 -30 -7 2 -19 -11 -27
-30 -8 -19 -22 -40 -33 -47 -12 -8 -14 -13 -6 -16 7 -3 106 -62 220 -131 115
-69 244 -147 289 -174 105 -62 110 -69 83 -103 -14 -18 -28 -26 -40 -23 -11 3
-23 -2 -29 -11 -9 -15 -10 -15 -8 2 2 15 -52 53 -270 186 -150 91 -280 173
-289 182 -15 15 -19 13 -57 -29 -23 -26 -53 -59 -67 -74 -14 -15 -33 -39 -43
-53 -9 -15 -21 -24 -26 -21 -5 3 -11 -3 -15 -14 -3 -11 -24 -39 -46 -63 -22
-24 -50 -54 -63 -68 -13 -14 -33 -42 -46 -63 -18 -30 -25 -35 -36 -26 -11 9
-14 9 -14 0 0 -7 -4 -9 -10 -6 -5 3 -10 15 -10 26 0 17 10 23 32 20 4 0 42 39
85 87 43 48 80 89 83 92 27 26 60 75 60 88 -1 15 -2 15 -14 -1 -23 -30 -29 -1
-11 56 10 28 23 61 30 72 17 29 27 75 16 75 -11 0 -91 -115 -91 -131 0 -5 -5
-9 -11 -9 -7 0 -8 11 -3 32 4 18 8 43 8 55 1 12 4 25 9 29 4 4 7 12 7 18 -1 6
-10 0 -21 -13 -11 -13 -17 -31 -14 -41 3 -9 -3 -24 -13 -33 -18 -16 -25 -13
-138 59 -65 42 -148 95 -184 117 -134 82 -260 169 -260 179 0 6 5 28 12 50 9
31 32 57 105 120 51 44 93 85 93 91 0 8 3 9 8 1 4 -5 31 -25 60 -42 l53 -33
154 146 c139 131 192 175 154 128z m-1098 -76 c4 2 17 -9 27 -22 11 -14 30
-25 42 -25 11 0 19 -4 16 -9 -6 -9 22 -26 37 -23 4 1 7 -5 7 -14 0 -11 6 -15
18 -12 10 3 23 -1 31 -9 7 -8 26 -16 42 -20 16 -3 26 -10 23 -15 -3 -5 3 -12
15 -15 12 -3 21 -9 21 -14 0 -5 5 -9 10 -9 6 0 28 -11 50 -25 22 -14 49 -25
62 -25 l21 0 -23 -25 c-16 -17 -31 -23 -44 -20 -12 3 -15 2 -8 -1 10 -5 6 -14
-14 -35 -15 -16 -33 -29 -39 -29 -6 0 -33 15 -60 33 -28 18 -131 84 -230 146
-99 63 -186 119 -193 126 -11 10 -8 16 16 34 18 12 38 19 49 15 13 -4 14 -3 5
4 -11 7 -8 14 13 30 l27 21 35 -32 c20 -18 39 -31 44 -30z m-801 27 c0 -16
-16 -19 -25 -4 -8 13 4 32 16 25 5 -4 9 -13 9 -21z m115 -20 c14 -9 22 -20 19
-25 -3 -5 1 -6 9 -3 8 3 21 -1 28 -8 8 -7 57 -41 109 -75 52 -34 103 -68 112
-76 9 -9 26 -20 37 -27 16 -8 21 -20 21 -50 0 -22 -3 -40 -6 -40 -3 0 -56 35
-117 77 -62 43 -152 105 -202 139 -88 59 -110 87 -83 106 9 6 5 7 -12 3 -24
-6 -24 -5 -6 9 21 17 14 19 91 -30z m400 -14 c-3 -5 -11 -10 -16 -10 -6 0 -7
5 -4 10 3 6 11 10 16 10 6 0 7 -4 4 -10z m895 0 c0 -5 -5 -10 -11 -10 -5 0 -7
5 -4 10 3 6 8 10 11 10 2 0 4 -4 4 -10z m60 -3 c0 -2 -10 -12 -22 -23 l-23
-19 19 23 c18 21 26 27 26 19z m31 -104 c-8 -15 -10 -15 -11 -2 0 17 10 32 18
25 2 -3 -1 -13 -7 -23z m418 -6 c6 -8 9 -17 6 -21 -3 -3 0 -2 7 4 8 7 24 2 52
-13 23 -13 96 -55 163 -92 67 -38 119 -73 117 -77 -3 -4 2 -5 11 -2 11 5 19
-2 28 -25 6 -17 17 -31 23 -31 8 0 10 -8 6 -22 l-5 -22 -8 22 c-5 12 -13 22
-19 22 -6 0 -8 -6 -5 -12 4 -7 -1 -4 -9 6 -15 18 -20 15 -17 -9 1 -5 -5 -2
-12 8 -8 9 -20 17 -26 17 -7 0 -9 4 -6 10 3 5 0 7 -9 4 -8 -3 -25 4 -37 15
-13 12 -30 21 -39 21 -9 0 -26 9 -37 19 -12 11 -23 17 -26 14 -3 -3 -15 1 -26
9 -12 8 -18 18 -14 21 3 4 2 7 -3 8 -34 3 -52 11 -71 33 -21 25 -40 36 -28 16
3 -6 -1 -7 -10 -4 -9 4 -14 13 -11 20 3 8 1 14 -4 14 -6 0 -10 -5 -10 -12 0
-26 -24 12 -26 42 -2 23 2 30 16 30 10 0 23 -6 29 -13z m-571 -22 c-8 -19 -14
-22 -20 -13 -5 9 -8 7 -9 -7 0 -13 -2 -15 -6 -6 -3 8 5 22 18 32 31 24 31 24
17 -6z m-1401 -17 c-3 -8 -6 -5 -6 6 -1 11 2 17 5 13 3 -3 4 -12 1 -19z m756
-52 c62 -40 153 -99 202 -131 50 -32 92 -61 95 -64 3 -3 17 -12 33 -20 27 -14
34 -40 21 -74 -6 -16 -33 -3 -145 71 -31 20 -82 54 -115 76 -32 21 -76 50 -97
65 -21 14 -50 33 -64 41 -39 23 -64 61 -57 88 4 12 8 22 11 22 2 0 55 -33 116
-74z m1105 15 c-32 -26 -38 -16 -7 13 13 13 26 19 27 14 2 -4 -7 -17 -20 -27z
m-1918 19 c0 -5 -4 -10 -10 -10 -5 0 -10 5 -10 10 0 6 5 10 10 10 6 0 10 -4
10 -10z m1865 -70 c-10 -11 -20 -18 -23 -15 -7 6 18 35 31 35 5 0 2 -9 -8 -20z
m-1242 -91 c-8 -16 -17 -29 -19 -29 -3 0 -2 4 1 10 3 5 2 18 -3 27 -14 27 -4
45 17 31 16 -10 17 -14 4 -39z m734 -99 c-1 -11 -7 -20 -15 -20 -8 0 -3 -10
12 -25 14 -14 30 -25 36 -25 5 0 10 -5 10 -11 0 -13 -4 -11 -52 21 -44 29 -46
35 -15 61 27 23 26 23 24 -1z m813 -89 c0 -5 -6 -11 -13 -14 -8 -3 -14 1 -14
9 0 8 6 14 14 14 7 0 13 -4 13 -9z m-724 -22 c19 -22 19 -22 -3 -8 -13 8 -23
17 -23 21 0 12 6 9 26 -13z m-215 -127 c-5 -9 -18 -25 -28 -34 -18 -17 -20
-16 -36 2 -17 20 -12 24 26 21 9 -1 20 5 23 13 3 9 10 16 15 16 6 0 6 -7 0
-18z m-521 -2 c0 -5 -5 -10 -11 -10 -5 0 -7 5 -4 10 3 6 8 10 11 10 2 0 4 -4
4 -10z m970 -20 c0 -5 -2 -10 -4 -10 -3 0 -8 5 -11 10 -3 6 -1 10 4 10 6 0 11
-4 11 -10z m-596 -33 c-9 -24 -23 -11 -17 14 3 12 9 17 15 11 5 -5 6 -16 2
-25z m626 13 c0 -5 -2 -10 -4 -10 -3 0 -8 5 -11 10 -3 6 -1 10 4 10 6 0 11 -4
11 -10z m450 -14 c0 -3 -4 -8 -10 -11 -5 -3 -10 -1 -10 4 0 6 5 11 10 11 6 0
10 -2 10 -4z m-303 -51 c38 2 41 0 32 -16 -5 -11 -16 -19 -25 -19 -15 0 -94
46 -94 55 0 3 10 -1 23 -8 12 -8 41 -13 64 -12z m-693 -49 c-3 -9 -10 -13 -15
-10 -5 3 -3 11 4 19 15 16 19 13 11 -9z m-51 -33 c-10 -30 -14 -34 -24 -27 -6
4 -3 14 7 25 21 24 25 24 17 2z m904 -30 c-16 -16 -17 -16 -17 3 0 26 11 37
24 24 7 -7 5 -16 -7 -27z m504 -65 c10 -13 18 -19 19 -15 0 12 100 -45 100
-57 0 -6 -4 -17 -9 -25 -7 -11 -28 -2 -103 44 -179 111 -169 104 -158 125 10
18 13 17 71 -16 33 -18 69 -44 80 -56z m-1355 25 c-10 -10 -19 5 -10 18 6 11
8 11 12 0 2 -7 1 -15 -2 -18z m580 -140 c-2 -3 -9 -2 -15 2 -8 4 -7 13 1 28
l13 22 3 -23 c2 -13 1 -26 -2 -29z m-426 -39 c0 -8 -5 -12 -10 -9 -6 4 -8 11
-5 16 9 14 15 11 15 -7z m1497 -26 c-3 -8 -6 -5 -6 6 -1 11 2 17 5 13 3 -3 4
-12 1 -19z"/>
<path d="M6500 4620 c0 -5 5 -10 10 -10 6 0 10 5 10 10 0 6 -4 10 -10 10 -5 0
-10 -4 -10 -10z"/>
<path d="M6175 3386 c73 -45 95 -54 100 -45 4 5 -7 14 -22 21 -15 6 -35 17
-43 24 -8 6 -28 14 -45 18 -28 6 -28 5 10 -18z"/>
<path d="M6744 3481 c23 -25 22 -25 30 -4 4 10 4 14 0 11 -4 -4 -16 -2 -28 4
-21 11 -21 11 -2 -11z"/>
<path d="M6807 3459 c7 -7 15 -10 18 -7 3 3 -2 9 -12 12 -14 6 -15 5 -6 -5z"/>
<path d="M7010 3370 c0 -5 5 -10 11 -10 5 0 7 5 4 10 -3 6 -8 10 -11 10 -2 0
-4 -4 -4 -10z"/>
<path d="M5905 3322 c17 -10 32 -15 34 -10 4 13 0 15 -34 23 l-30 7 30 -20z"/>
<path d="M5810 3156 c0 -2 7 -7 16 -10 8 -3 12 -2 9 4 -6 10 -25 14 -25 6z"/>
<path d="M7746 1752 c-3 -5 1 -9 9 -9 8 0 12 4 9 9 -3 4 -7 8 -9 8 -2 0 -6 -4
-9 -8z"/>
<path d="M7789 1704 c-20 -24 4 -38 25 -15 14 16 15 19 2 24 -8 3 -20 -1 -27
-9z"/>
<path d="M8750 1535 c0 -2 9 -9 20 -15 15 -8 20 -8 20 3 0 7 -9 13 -20 14 -11
1 -20 0 -20 -2z"/>
<path d="M10064 403 c-3 -10 -12 -31 -20 -48 l-14 -30 25 28 c14 15 25 37 25
48 0 24 -9 25 -16 2z"/>
<path d="M8814 1135 c10 -7 15 -18 11 -24 -3 -6 0 -9 8 -5 8 3 21 -2 30 -10 8
-8 17 -13 19 -10 3 2 11 -2 18 -11 7 -8 18 -15 24 -15 14 0 -45 49 -60 50 -6
0 -19 9 -29 20 -10 11 -23 20 -29 20 -6 0 -3 -7 8 -15z"/>
<path d="M8940 1068 c0 -19 25 -58 38 -58 8 0 12 -6 8 -15 -3 -10 1 -15 11
-15 9 0 13 3 10 7 -4 3 -2 12 5 20 8 11 7 12 -6 7 -11 -4 -16 -2 -14 6 2 6 -6
17 -17 23 -11 7 -23 17 -27 22 -4 6 -8 7 -8 3z"/>
<path d="M9023 958 c2 -7 10 -13 17 -13 7 0 15 6 18 13 2 7 -5 12 -18 12 -13
0 -20 -5 -17 -12z"/>
<path d="M9094 905 c26 -19 42 -19 26 0 -7 8 -20 15 -29 15 -13 -1 -13 -3 3
-15z"/>
<path d="M5966 4972 c-3 -6 -1 -14 5 -17 15 -10 25 3 12 16 -7 7 -13 7 -17 1z"/>
<path d="M6005 4960 c3 -5 8 -10 11 -10 2 0 4 5 4 10 0 6 -5 10 -11 10 -5 0
-7 -4 -4 -10z"/>
<path d="M6065 4950 c-3 -5 -1 -10 4 -10 6 0 11 5 11 10 0 6 -2 10 -4 10 -3 0
-8 -4 -11 -10z"/>
<path d="M5953 4933 c9 -2 23 -2 30 0 6 3 -1 5 -18 5 -16 0 -22 -2 -12 -5z"/>
<path d="M6008 4933 c7 -3 16 -2 19 1 4 3 -2 6 -13 5 -11 0 -14 -3 -6 -6z"/>
<path d="M6154 4905 c-19 -14 -18 -14 4 -15 13 0 22 6 22 15 0 19 -1 19 -26 0z"/>
<path d="M5950 4894 c0 -14 3 -15 18 -3 9 7 19 15 21 16 2 2 -5 3 -17 3 -14 0
-22 -6 -22 -16z"/>
<path d="M6333 4873 c9 -2 25 -2 35 0 9 3 1 5 -18 5 -19 0 -27 -2 -17 -5z"/>
<path d="M6235 4860 c-3 -5 -1 -10 4 -10 6 0 11 5 11 10 0 6 -2 10 -4 10 -3 0
-8 -4 -11 -10z"/>
<path d="M6240 4821 c0 -5 7 -12 16 -15 24 -9 28 -7 14 9 -14 17 -30 20 -30 6z"/>
<path d="M6460 4730 c0 -5 5 -10 10 -10 6 0 10 5 10 10 0 6 -4 10 -10 10 -5 0
-10 -4 -10 -10z"/>
<path d="M6520 4730 c0 -5 9 -10 20 -10 11 0 20 5 20 10 0 6 -9 10 -20 10 -11
0 -20 -4 -20 -10z"/>
<path d="M6615 4670 c-13 -6 -5 -7 25 -3 25 3 47 7 49 9 9 8 -55 2 -74 -6z"/>
<path d="M6640 4656 c0 -2 7 -6 15 -10 8 -3 15 -1 15 4 0 6 -7 10 -15 10 -8 0
-15 -2 -15 -4z"/>
<path d="M6850 4656 c0 -2 7 -7 16 -10 8 -3 12 -2 9 4 -6 10 -25 14 -25 6z"/>
<path d="M6700 4646 c0 -2 7 -9 15 -16 9 -7 15 -8 15 -2 0 5 -7 12 -15 16 -8
3 -15 4 -15 2z"/>
<path d="M6830 4610 c0 -13 18 -22 24 -11 3 5 -1 11 -9 15 -8 3 -15 1 -15 -4z"/>
<path d="M6730 4590 c0 -6 7 -10 15 -10 8 0 15 2 15 4 0 2 -7 6 -15 10 -8 3
-15 1 -15 -4z"/>
<path d="M6785 4579 c-4 -6 -5 -12 -2 -15 2 -3 7 2 10 11 7 17 1 20 -8 4z"/>
<path d="M6717 4563 c-4 -3 -7 -11 -7 -17 0 -6 5 -5 12 2 6 6 9 14 7 17 -3 3
-9 2 -12 -2z"/>
<path d="M6910 4561 c0 -11 26 -22 34 -14 12 12 5 23 -14 23 -11 0 -20 -4 -20
-9z"/>
<path d="M6647 4544 c-12 -12 4 -24 31 -23 17 1 21 3 10 6 -10 2 -18 9 -18 14
0 10 -14 12 -23 3z"/>
<path d="M6750 4540 c0 -6 -6 -10 -14 -10 -25 0 -26 -16 -1 -18 29 -2 53 23
30 32 -8 3 -15 1 -15 -4z"/>
<path d="M6820 4530 c0 -5 6 -10 13 -10 9 0 9 -2 -1 -9 -11 -6 -10 -10 4 -15
9 -3 19 -4 22 -1 3 3 1 5 -5 5 -6 0 -9 9 -6 20 4 14 0 20 -11 20 -9 0 -16 -4
-16 -10z"/>
<path d="M6880 4498 c0 -5 15 -8 34 -8 19 0 43 -3 53 -6 12 -5 15 -4 8 4 -12
12 -95 21 -95 10z"/>
<path d="M7088 4493 c7 -3 16 -2 19 1 4 3 -2 6 -13 5 -11 0 -14 -3 -6 -6z"/>
<path d="M6795 4460 c-3 -5 -3 -10 1 -10 4 0 -1 -7 -12 -15 -17 -13 -17 -14
-1 -15 9 0 20 0 24 0 5 0 9 11 10 25 2 25 -10 34 -22 15z"/>
<path d="M6870 4462 c0 -7 -10 -13 -22 -13 -19 -1 -20 -2 -4 -6 20 -5 44 12
33 24 -4 3 -7 1 -7 -5z"/>
<path d="M6865 4420 c3 -5 12 -10 20 -10 8 0 17 -5 21 -12 5 -7 2 -9 -8 -6 -8
4 -15 1 -15 -5 0 -7 11 -13 24 -13 13 -1 36 -5 51 -9 21 -5 24 -4 15 6 -6 6
-23 12 -38 12 -46 0 -20 11 39 16 11 1 -24 30 -36 31 -5 0 -8 -7 -8 -15 0 -19
-9 -19 -34 0 -23 17 -40 20 -31 5z"/>
<path d="M6690 4410 c0 -5 5 -10 10 -10 6 0 10 5 10 10 0 6 -4 10 -10 10 -5 0
-10 -4 -10 -10z"/>
<path d="M6726 4373 c-13 -13 -5 -23 18 -23 14 0 28 -4 31 -10 10 -15 33 -12
31 5 -1 8 -4 16 -7 18 -9 8 -67 16 -73 10z"/>
<path d="M7060 4368 c0 -6 3 -8 6 -5 4 3 15 2 25 -3 10 -6 20 -6 23 -1 3 5 -4
11 -17 15 -32 8 -37 7 -37 -6z"/>
<path d="M7143 4353 c-21 -8 -15 -22 7 -16 11 3 20 9 20 14 0 10 -8 10 -27 2z"/>
<path d="M7220 4343 c0 -14 19 -38 25 -32 8 8 -5 39 -16 39 -5 0 -9 -3 -9 -7z"/>
<path d="M6977 4310 c6 -24 19 -26 27 -4 9 23 8 24 -13 24 -14 0 -18 -5 -14
-20z"/>
<path d="M7277 4309 c6 -6 20 -11 32 -12 11 -1 21 -4 21 -7 0 -3 16 -6 35 -7
44 -2 46 13 3 21 -60 13 -101 15 -91 5z"/>
<path d="M6830 4300 c0 -5 7 -10 16 -10 8 0 12 5 9 10 -3 6 -10 10 -16 10 -5
0 -9 -4 -9 -10z"/>
<path d="M7032 4276 c7 -8 15 -12 17 -11 5 6 -10 25 -20 25 -5 0 -4 -6 3 -14z"/>
<path d="M7175 4260 c3 -5 10 -10 16 -10 5 0 9 5 9 10 0 6 -7 10 -16 10 -8 0
-12 -4 -9 -10z"/>
<path d="M7077 4249 c16 -16 52 -19 47 -5 -3 8 -17 14 -30 14 -15 0 -22 -4
-17 -9z"/>
<path d="M7137 4244 c3 -7 9 -14 14 -14 14 0 10 17 -5 23 -10 4 -13 1 -9 -9z"/>
<path d="M7490 4245 c7 -9 15 -13 17 -11 7 7 -7 26 -19 26 -6 0 -6 -6 2 -15z"/>
<path d="M7350 4230 c0 -5 7 -7 15 -4 8 4 15 8 15 10 0 2 -7 4 -15 4 -8 0 -15
-4 -15 -10z"/>
<path d="M7170 4226 c0 -9 30 -14 35 -6 4 6 -3 10 -14 10 -12 0 -21 -2 -21 -4z"/>
<path d="M7250 4223 c0 -4 5 -15 10 -23 8 -13 10 -13 10 2 0 9 -4 20 -10 23
-5 3 -10 3 -10 -2z"/>
<path d="M7110 4198 c0 -4 9 -8 20 -8 10 0 23 -7 27 -15 5 -9 13 -11 22 -6 7
5 11 13 7 19 -7 12 -76 21 -76 10z"/>
<path d="M7285 4200 c-4 -6 0 -10 8 -10 8 0 20 -7 27 -15 14 -17 30 -20 30 -4
0 5 -5 7 -10 4 -6 -3 -13 0 -16 9 -7 18 -31 28 -39 16z"/>
<path d="M7220 4191 c0 -6 4 -13 10 -16 6 -3 7 1 4 9 -7 18 -14 21 -14 7z"/>
<path d="M7416 4177 c3 -10 9 -15 12 -12 3 3 0 11 -7 18 -10 9 -11 8 -5 -6z"/>
<path d="M7214 4147 c-3 -10 -4 -21 0 -24 3 -4 6 -1 6 6 0 8 7 7 23 -3 14 -10
27 -12 37 -6 11 7 7 10 -16 16 -16 4 -32 12 -36 18 -4 6 -9 4 -14 -7z"/>
<path d="M7366 4141 c-4 -5 -2 -11 4 -13 5 -1 11 -14 13 -27 5 -33 23 -38 30
-9 9 33 -32 74 -47 49z"/>
<path d="M7490 4130 c8 -5 20 -10 25 -10 6 0 3 5 -5 10 -8 5 -19 10 -25 10 -5
0 -3 -5 5 -10z"/>
<path d="M7306 4122 c-4 -7 -5 -12 -2 -12 2 0 11 -3 20 -6 9 -3 16 -1 16 6 0
6 -4 9 -9 6 -5 -4 -11 -1 -13 6 -3 9 -6 9 -12 0z"/>
<path d="M7255 4070 c4 -19 0 -20 -32 -14 -25 5 -34 3 -29 -4 4 -6 22 -14 41
-18 19 -3 35 -10 35 -14 0 -5 9 -8 20 -7 25 2 25 3 0 30 -11 12 -18 27 -16 34
3 7 -1 13 -9 13 -9 0 -12 -8 -10 -20z"/>
<path d="M7325 4050 c3 -5 8 -10 11 -10 2 0 4 5 4 10 0 6 -5 10 -11 10 -5 0
-7 -4 -4 -10z"/>
<path d="M7446 4047 c3 -10 9 -15 12 -12 3 3 0 11 -7 18 -10 9 -11 8 -5 -6z"/>
<path d="M7394 4039 c15 -9 16 -13 5 -20 -11 -7 -10 -9 5 -9 12 0 16 5 12 16
-3 9 -6 18 -6 20 0 2 -8 4 -17 4 -16 -1 -16 -2 1 -11z"/>
<path d="M7434 4003 c-7 -11 -15 -12 -36 -4 -19 7 -28 7 -28 0 0 -10 7 -13 53
-24 19 -4 26 -2 22 5 -13 20 13 9 27 -12 8 -12 17 -17 20 -12 3 5 -7 21 -22
35 -22 21 -29 23 -36 12z"/>
<path d="M7703 4005 c0 -7 6 -11 14 -8 7 3 13 6 13 8 0 2 -6 5 -13 8 -8 3 -14
-1 -14 -8z"/>
<path d="M7515 3980 c-3 -5 1 -10 9 -10 9 0 16 -4 16 -10 0 -5 4 -10 9 -10 5
0 7 9 4 20 -6 21 -28 27 -38 10z"/>
<path d="M7370 3960 c0 -5 5 -10 10 -10 6 0 10 5 10 10 0 6 -4 10 -10 10 -5 0
-10 -4 -10 -10z"/>
<path d="M7807 3959 c7 -7 15 -10 18 -7 3 3 -2 9 -12 12 -14 6 -15 5 -6 -5z"/>
<path d="M7717 3929 c7 -7 15 -10 18 -7 3 3 -2 9 -12 12 -14 6 -15 5 -6 -5z"/>
<path d="M7560 3910 c0 -5 5 -10 10 -10 6 0 10 5 10 10 0 6 -4 10 -10 10 -5 0
-10 -4 -10 -10z"/>
<path d="M7616 3899 c6 -11 31 -12 37 -1 3 4 -6 8 -19 8 -13 1 -21 -2 -18 -7z"/>
<path d="M7676 3891 c-4 -5 3 -7 14 -4 23 6 26 13 6 13 -8 0 -17 -4 -20 -9z"/>
<path d="M7765 3890 c-3 -5 3 -10 15 -10 12 0 18 5 15 10 -3 6 -10 10 -15 10
-5 0 -12 -4 -15 -10z"/>
<path d="M7513 3882 c-7 -5 -3 -11 13 -19 23 -11 24 -10 13 5 -8 9 -14 18 -14
19 0 1 -6 -1 -12 -5z"/>
<path d="M7204 3865 c11 -8 27 -15 35 -15 11 0 10 4 -5 15 -10 8 -26 14 -34
14 -11 0 -10 -3 4 -14z"/>
<path d="M7368 3873 c6 -2 18 -2 25 0 6 3 1 5 -13 5 -14 0 -19 -2 -12 -5z"/>
<path d="M7598 3862 c-16 -17 -16 -18 7 -20 18 -1 22 2 18 18 -3 11 -6 20 -7
19 0 0 -9 -8 -18 -17z"/>
<path d="M7430 3861 c0 -5 7 -11 14 -14 10 -4 13 -1 9 9 -6 15 -23 19 -23 5z"/>
<path d="M7361 3856 c12 -10 60 -16 54 -6 -3 5 -18 10 -32 10 -15 0 -24 -2
-22 -4z"/>
<path d="M7476 3851 c-4 -6 3 -15 14 -21 23 -12 27 2 6 19 -9 8 -16 8 -20 2z"/>
<path d="M7720 3856 c0 -2 8 -10 18 -17 15 -13 16 -12 3 4 -13 16 -21 21 -21
13z"/>
<path d="M7035 3840 c3 -5 11 -10 16 -10 6 0 7 5 4 10 -3 6 -11 10 -16 10 -6
0 -7 -4 -4 -10z"/>
<path d="M7640 3846 c0 -2 7 -7 16 -10 8 -3 12 -2 9 4 -6 10 -25 14 -25 6z"/>
<path d="M7238 3833 c7 -3 16 -2 19 1 4 3 -2 6 -13 5 -11 0 -14 -3 -6 -6z"/>
<path d="M7350 3830 c0 -7 7 -10 15 -6 8 3 19 -3 25 -14 5 -10 26 -24 45 -30
19 -6 39 -19 44 -28 5 -9 22 -17 38 -18 16 -1 40 -4 54 -8 l24 -7 -23 14 c-12
7 -20 16 -16 19 3 4 -2 6 -12 6 -11 -1 -37 6 -58 16 -37 15 -38 17 -20 31 19
13 19 14 -1 11 -11 -2 -24 -1 -30 2 -5 3 -16 7 -25 8 -8 1 -25 6 -37 9 -15 5
-23 3 -23 -5z"/>
<path d="M7625 3820 c3 -5 11 -10 16 -10 6 0 7 5 4 10 -3 6 -11 10 -16 10 -6
0 -7 -4 -4 -10z"/>
<path d="M7260 3809 c0 -5 4 -8 9 -4 5 3 12 1 16 -5 4 -6 11 -7 17 -4 6 4 5
10 -3 15 -19 12 -39 11 -39 -2z"/>
<path d="M7690 3801 c0 -5 6 -14 13 -20 10 -8 14 -7 14 4 0 8 -6 16 -14 19 -7
3 -13 2 -13 -3z"/>
<path d="M7481 3796 c2 -2 18 -6 34 -10 22 -5 26 -4 15 4 -14 9 -59 15 -49 6z"/>
<path d="M7140 3786 c0 -9 30 -14 35 -6 4 6 -3 10 -14 10 -12 0 -21 -2 -21 -4z"/>
<path d="M7260 3780 c0 -9 40 -30 56 -30 14 0 0 19 -21 28 -32 15 -35 15 -35
2z"/>
<path d="M7780 3780 c19 -13 30 -13 30 0 0 6 -10 10 -22 10 -19 0 -20 -2 -8
-10z"/>
<path d="M7365 3771 c-18 -7 -17 -9 12 -24 20 -11 34 -13 38 -7 3 6 -3 10 -14
10 -12 0 -21 5 -21 11 0 5 5 7 12 3 7 -4 8 -3 4 4 -4 7 -8 12 -9 11 -1 0 -11
-4 -22 -8z"/>
<path d="M7330 3750 c0 -5 5 -10 11 -10 5 0 7 5 4 10 -3 6 -8 10 -11 10 -2 0
-4 -4 -4 -10z"/>
<path d="M8030 3740 c20 -13 33 -13 25 0 -3 6 -14 10 -23 10 -15 0 -15 -2 -2
-10z"/>
<path d="M7430 3729 c0 -5 5 -7 10 -4 6 3 10 8 10 11 0 2 -4 4 -10 4 -5 0 -10
-5 -10 -11z"/>
<path d="M7605 3730 c4 -6 11 -8 16 -5 14 9 11 15 -7 15 -8 0 -12 -5 -9 -10z"/>
<path d="M7640 3736 c0 -2 7 -6 15 -10 8 -3 15 -1 15 4 0 6 -7 10 -15 10 -8 0
-15 -2 -15 -4z"/>
<path d="M7255 3720 c4 -6 15 -10 26 -10 14 0 18 -4 13 -12 -6 -9 -3 -9 9 0 9
8 22 10 29 6 10 -5 10 -4 1 6 -15 16 -87 24 -78 10z"/>
<path d="M7896 3715 c4 -8 11 -15 16 -15 6 0 5 6 -2 15 -7 8 -14 15 -16 15 -2
0 -1 -7 2 -15z"/>
<path d="M7466 3698 c3 -4 0 -8 -6 -8 -6 0 -8 -5 -4 -11 5 -8 8 -8 13 0 5 8
21 7 57 -4 59 -18 54 -17 54 -5 0 6 -9 10 -19 10 -11 0 -22 4 -25 9 -3 5 -21
11 -40 13 -19 2 -32 0 -30 -4z"/>
<path d="M7307 3687 c-3 -7 3 -13 14 -13 13 0 15 3 7 13 -6 7 -12 13 -13 13
-2 0 -5 -6 -8 -13z"/>
<path d="M8175 3690 c3 -4 14 -10 25 -13 11 -3 18 -2 15 3 -3 4 -14 10 -25 13
-11 3 -18 2 -15 -3z"/>
<path d="M7768 3664 c23 -14 40 -29 38 -33 -3 -4 0 -8 7 -8 7 0 20 -4 30 -8
11 -5 7 3 -10 22 -16 16 -43 35 -62 41 -50 18 -51 15 -3 -14z"/>
<path d="M6770 3654 c0 -8 5 -12 10 -9 6 4 8 11 5 16 -9 14 -15 11 -15 -7z"/>
<path d="M7590 3654 c0 -8 68 -44 83 -44 11 0 -27 36 -38 37 -5 0 -18 4 -27 8
-10 4 -18 3 -18 -1z"/>
<path d="M7440 3640 c0 -6 7 -13 15 -17 24 -9 27 1 5 15 -13 8 -20 8 -20 2z"/>
<path d="M7554 3620 c21 -10 44 -24 51 -30 7 -6 16 -7 19 -2 6 11 -39 37 -79
46 -27 5 -27 4 9 -14z"/>
<path d="M6797 3619 c7 -7 15 -10 18 -7 3 3 -2 9 -12 12 -14 6 -15 5 -6 -5z"/>
<path d="M7127 3609 c-3 -10 4 -25 15 -35 17 -16 18 -16 12 -1 -4 13 -1 17 15
17 30 0 26 14 -8 27 -25 9 -30 8 -34 -8z"/>
<path d="M7172 3625 c3 -3 21 -10 39 -15 31 -9 32 -8 15 5 -18 14 -66 22 -54
10z"/>
<path d="M6830 3612 c0 -13 31 -37 67 -52 18 -7 30 -16 27 -21 -3 -5 1 -6 9
-3 8 3 17 -2 21 -12 5 -13 15 -15 49 -10 41 6 41 5 17 -9 -21 -13 -22 -15 -5
-12 11 1 25 -3 30 -10 6 -7 19 -15 30 -17 11 -2 29 -8 39 -12 14 -5 17 -4 12
4 -4 7 -12 12 -18 12 -16 0 -58 37 -51 44 8 8 -41 56 -56 56 -5 0 -12 -6 -14
-12 -4 -9 -6 -8 -6 2 -1 10 -12 16 -28 18 -22 1 -24 0 -13 -8 8 -5 10 -10 4
-10 -6 0 -17 7 -24 15 -7 9 -18 14 -24 12 -13 -5 -38 18 -29 27 4 3 -3 6 -15
6 -12 0 -22 -4 -22 -8z"/>
<path d="M7252 3605 c2 -15 -3 -20 -22 -21 -64 -3 -63 -3 -50 -19 16 -19 31
-20 24 -1 -4 10 0 14 13 12 10 -2 18 -8 18 -14 0 -6 27 -30 60 -53 55 -39 57
-39 31 -11 -29 31 -33 57 -5 29 8 -7 22 -16 32 -20 11 -4 15 -12 11 -18 -4 -8
-3 -9 5 -5 6 4 20 2 29 -5 9 -7 4 1 -13 17 -35 35 -79 56 -99 48 -8 -3 -19 3
-26 15 -10 20 -7 26 14 22 5 -1 3 6 -4 16 -8 10 -16 20 -18 23 -2 3 -2 -4 0
-15z"/>
<path d="M7698 3613 c7 -3 16 -2 19 1 4 3 -2 6 -13 5 -11 0 -14 -3 -6 -6z"/>
<path d="M7500 3596 c28 -17 50 -21 35 -7 -6 5 -21 12 -35 15 l-25 7 25 -15z"/>
<path d="M7761 3586 c2 -2 15 -9 29 -16 23 -12 24 -12 11 3 -7 10 -20 17 -29
17 -8 0 -13 -2 -11 -4z"/>
<path d="M7393 3568 c2 -7 10 -12 17 -10 7 2 10 -3 7 -12 -7 -17 38 -50 56
-42 7 2 5 5 -4 5 -9 1 -24 17 -35 36 -17 32 -52 51 -41 23z"/>
<path d="M7562 3564 c10 -10 20 -16 22 -13 3 3 -5 11 -17 18 -21 13 -21 12 -5
-5z"/>
<path d="M7720 3547 c14 -13 27 -23 29 -21 6 5 -10 24 -32 35 -20 10 -20 9 3
-14z"/>
<path d="M7493 3535 c0 -8 4 -12 9 -9 5 3 6 10 3 15 -9 13 -12 11 -12 -6z"/>
<path d="M6900 3521 c0 -10 19 -25 25 -20 1 2 -3 10 -11 17 -8 7 -14 8 -14 3z"/>
<path d="M7263 3475 c7 -14 16 -25 20 -25 5 0 6 4 3 9 -3 4 6 6 19 3 14 -2 25
-9 24 -16 -4 -30 3 -44 26 -54 33 -15 32 1 -2 27 -16 12 -20 18 -10 15 32 -11
17 11 -25 39 -54 35 -70 36 -55 2z"/>
<path d="M8114 3485 c11 -8 22 -12 25 -9 6 6 -19 24 -34 24 -5 -1 -1 -7 9 -15z"/>
<path d="M7505 3480 c-3 -5 -1 -10 5 -10 6 0 8 -4 5 -10 -3 -6 4 -10 16 -10
21 0 22 1 4 20 -21 23 -22 23 -30 10z"/>
<path d="M7820 3486 c0 -2 7 -7 16 -10 8 -3 12 -2 9 4 -6 10 -25 14 -25 6z"/>
<path d="M7440 3461 c0 -5 7 -12 16 -15 14 -5 15 -4 4 9 -14 17 -20 19 -20 6z"/>
<path d="M7087 3433 c-4 -6 0 -13 8 -17 9 -3 12 -12 8 -22 -4 -11 -2 -15 6
-13 7 3 12 8 11 13 -1 5 4 13 12 17 9 6 7 9 -9 9 -12 0 -23 5 -25 12 -3 8 -6
9 -11 1z"/>
<path d="M7370 3432 c0 -13 41 -30 87 -35 33 -4 40 -2 30 7 -16 16 -50 29 -42
16 10 -16 -28 -12 -53 6 -12 8 -22 11 -22 6z"/>
<path d="M7552 3431 c4 -13 18 -16 19 -4 0 4 -5 9 -11 12 -7 2 -11 -2 -8 -8z"/>
<path d="M7185 3419 c-4 -6 -4 -13 -1 -16 3 -4 6 -1 6 6 0 7 5 9 12 5 7 -4 8
-3 4 4 -9 15 -13 15 -21 1z"/>
<path d="M7633 3407 c15 -6 27 -14 27 -19 0 -4 7 -8 15 -8 8 0 15 -4 15 -9 0
-13 28 -22 35 -10 4 5 3 8 -2 7 -5 -2 -21 7 -36 19 -15 12 -22 23 -16 25 7 2
-6 4 -27 4 -38 1 -38 1 -11 -9z"/>
<path d="M7238 3393 c6 -2 18 -2 25 0 6 3 1 5 -13 5 -14 0 -19 -2 -12 -5z"/>
<path d="M7515 3391 c-3 -5 -1 -12 4 -15 5 -3 11 1 15 9 6 16 -9 21 -19 6z"/>
<path d="M7788 3393 c6 -2 10 -8 7 -13 -3 -4 4 -6 16 -3 16 4 17 8 7 14 -7 5
-20 8 -28 8 -10 0 -11 -2 -2 -6z"/>
<path d="M7870 3389 c0 -5 5 -7 10 -4 6 3 10 8 10 11 0 2 -4 4 -10 4 -5 0 -10
-5 -10 -11z"/>
<path d="M7272 3381 c-11 -6 -9 -9 6 -13 15 -4 19 -2 15 8 -6 16 -4 16 -21 5z"/>
<path d="M7390 3380 c0 -5 8 -10 18 -10 10 0 22 -3 26 -7 3 -4 12 -8 19 -9 30
-5 87 -35 96 -51 7 -12 10 -14 11 -4 0 10 3 11 14 2 8 -7 17 -8 20 -3 7 12 -3
22 -24 22 -21 0 -70 23 -70 33 0 5 5 5 10 2 22 -14 8 4 -15 19 -19 13 -30 14
-45 6 -14 -7 -20 -7 -20 0 0 5 -9 10 -20 10 -11 0 -20 -4 -20 -10z"/>
<path d="M7965 3350 c-3 -6 1 -7 9 -4 18 7 21 14 7 14 -6 0 -13 -4 -16 -10z"/>
<path d="M7261 3341 c-10 -6 -9 -10 5 -15 20 -8 25 -4 16 11 -4 7 -13 9 -21 4z"/>
<path d="M7603 3324 c14 -12 23 -24 19 -27 -4 -2 -1 -2 6 -1 6 2 12 -1 12 -6
0 -6 7 -10 16 -10 8 0 13 -4 10 -9 -6 -9 16 -21 40 -21 27 0 13 17 -33 41 -27
13 -48 31 -48 39 0 9 -10 15 -25 16 l-24 1 27 -23z"/>
<path d="M7836 3342 c-2 -4 4 -8 14 -8 10 0 16 4 14 8 -3 4 -9 8 -14 8 -5 0
-11 -4 -14 -8z"/>
<path d="M7410 3310 c0 -5 7 -10 16 -10 8 0 12 5 9 10 -3 6 -10 10 -16 10 -5
0 -9 -4 -9 -10z"/>
<path d="M7707 3299 c7 -7 15 -10 18 -7 3 3 -2 9 -12 12 -14 6 -15 5 -6 -5z"/>
<path d="M7741 3293 c-1 -6 5 -15 12 -20 19 -12 47 -14 47 -3 0 6 -11 10 -24
10 -13 0 -27 6 -29 13 -4 9 -6 9 -6 0z"/>
<path d="M8068 3293 c7 -3 16 -2 19 1 4 3 -2 6 -13 5 -11 0 -14 -3 -6 -6z"/>
<path d="M7354 3282 c4 -3 14 -7 22 -8 9 -1 13 0 10 4 -4 3 -14 7 -22 8 -9 1
-13 0 -10 -4z"/>
<path d="M7416 3282 c-3 -4 4 -9 15 -9 23 -2 25 3 4 10 -8 4 -16 3 -19 -1z"/>
<path d="M7050 3266 c0 -21 37 -39 66 -32 14 4 24 2 24 -4 0 -6 5 -8 10 -5 6
4 17 1 25 -5 15 -12 35 -6 35 12 0 5 -6 8 -14 5 -7 -3 -26 1 -41 9 -16 8 -40
16 -55 17 -14 2 -31 7 -38 11 -7 4 -12 1 -12 -8z"/>
<path d="M7018 3263 c7 -3 16 -2 19 1 4 3 -2 6 -13 5 -11 0 -14 -3 -6 -6z"/>
<path d="M7170 3260 c0 -5 5 -10 11 -10 5 0 7 5 4 10 -3 6 -8 10 -11 10 -2 0
-4 -4 -4 -10z"/>
<path d="M7473 3257 c6 -17 -4 -23 -17 -10 -8 8 -46 15 -46 8 0 -16 70 -36
128 -37 24 0 30 -4 23 -11 -14 -14 -14 -27 1 -27 6 0 8 3 5 7 -4 3 3 13 14 21
17 12 25 12 44 2 13 -7 21 -18 18 -26 -3 -8 1 -14 8 -14 7 0 9 3 6 7 -4 3 -1
13 6 21 9 13 9 14 0 8 -8 -4 -13 -2 -13 8 0 15 -86 39 -104 29 -5 -3 -6 -1 -2
5 4 7 1 12 -8 12 -8 0 -23 3 -33 6 -17 5 -16 4 1 -10 11 -9 17 -18 14 -22 -4
-3 -16 4 -29 17 -16 16 -21 18 -16 6z"/>
<path d="M7772 3248 c5 -15 28 -23 28 -10 0 5 -7 13 -16 16 -10 4 -14 1 -12
-6z"/>
<path d="M8134 3235 c16 -9 32 -13 35 -10 8 9 -21 25 -44 25 -16 0 -14 -3 9
-15z"/>
<path d="M7801 3226 c-10 -11 -7 -14 13 -12 18 1 22 4 14 14 -13 15 -13 15
-27 -2z"/>
<path d="M7913 3209 c22 -11 41 -18 44 -16 5 6 -56 37 -71 37 -6 -1 6 -10 27
-21z"/>
<path d="M7410 3201 c0 -10 19 -25 25 -20 1 2 -3 10 -11 17 -8 7 -14 8 -14 3z"/>
<path d="M7851 3205 c9 -8 79 -35 79 -30 0 7 -57 35 -71 35 -7 0 -10 -2 -8 -5z"/>
<path d="M7108 3183 c7 -3 16 -2 19 1 4 3 -2 6 -13 5 -11 0 -14 -3 -6 -6z"/>
<path d="M7970 3185 c0 -2 19 -13 41 -24 45 -24 64 -23 27 1 -22 14 -68 30
-68 23z"/>
<path d="M7140 3171 c0 -5 7 -11 15 -15 8 -3 15 -1 15 3 0 5 -7 11 -15 15 -8
3 -15 1 -15 -3z"/>
<path d="M7580 3170 c0 -5 5 -10 11 -10 5 0 7 5 4 10 -3 6 -8 10 -11 10 -2 0
-4 -4 -4 -10z"/>
<path d="M7255 3151 c3 -15 0 -18 -13 -14 -9 4 -2 -9 16 -27 26 -28 34 -32 45
-20 7 8 8 10 1 7 -11 -7 -24 12 -30 43 -2 10 2 9 12 -4 8 -11 14 -15 14 -9 0
14 -28 43 -40 43 -5 0 -7 -9 -5 -19z"/>
<path d="M7415 3160 c-7 -12 86 -100 106 -100 17 0 -1 20 -19 21 -11 0 -13 2
-4 6 18 7 -5 33 -30 33 -10 0 -17 4 -14 8 3 5 -4 16 -14 25 -11 9 -22 12 -25
7z"/>
<path d="M7525 3150 c3 -5 14 -10 23 -10 15 0 15 2 2 10 -20 13 -33 13 -25 0z"/>
<path d="M8240 3150 c8 -5 22 -9 30 -9 10 0 8 3 -5 9 -27 12 -43 12 -25 0z"/>
<path d="M7654 3131 c4 -6 16 -11 26 -11 10 0 22 -4 25 -10 3 -5 15 -10 26
-10 10 0 19 -7 19 -15 0 -21 -27 -19 -52 5 -22 21 -47 17 -26 -4 20 -19 128
-66 128 -55 0 5 14 2 31 -6 37 -19 40 -18 23 13 -7 14 -14 19 -18 13 -4 -5
-14 -7 -24 -4 -25 9 -52 34 -46 44 6 10 -40 34 -85 44 -23 5 -31 4 -27 -4z"/>
<path d="M7188 3123 c7 -3 16 -2 19 1 4 3 -2 6 -13 5 -11 0 -14 -3 -6 -6z"/>
<path d="M7371 3127 c2 -1 12 -9 22 -16 15 -12 17 -12 11 3 -3 9 -13 16 -22
16 -8 0 -13 -1 -11 -3z"/>
<path d="M7788 3123 c7 -3 16 -2 19 1 4 3 -2 6 -13 5 -11 0 -14 -3 -6 -6z"/>
<path d="M8025 3100 c-3 -5 -1 -10 4 -10 6 0 11 5 11 10 0 6 -2 10 -4 10 -3 0
-8 -4 -11 -10z"/>
<path d="M8145 3100 c3 -5 10 -10 16 -10 5 0 9 5 9 10 0 6 -7 10 -16 10 -8 0
-12 -4 -9 -10z"/>
<path d="M7176 3085 c10 -8 24 -15 29 -15 6 0 22 -7 37 -14 16 -9 30 -11 33
-5 4 5 1 9 -5 9 -6 0 -9 4 -6 8 2 4 -8 8 -22 7 -15 0 -26 5 -25 10 1 6 -13 11
-29 12 -29 2 -30 2 -12 -12z"/>
<path d="M7418 3077 c7 -7 8 -18 4 -23 -4 -5 -3 -6 2 -2 4 4 19 3 32 -2 35
-14 29 -5 -13 20 -20 12 -31 15 -25 7z"/>
<path d="M7540 3079 c0 -10 60 -32 67 -25 3 3 1 6 -5 6 -7 0 -12 6 -12 14 0 9
-10 13 -25 12 -14 0 -25 -4 -25 -7z"/>
<path d="M7345 3069 c11 -7 22 -15 25 -19 3 -4 15 -12 27 -19 18 -9 22 -9 18
1 -3 7 -18 19 -33 26 -39 19 -60 26 -37 11z"/>
<path d="M7960 3065 c7 -9 15 -13 17 -11 7 7 -7 26 -19 26 -6 0 -6 -6 2 -15z"/>
<path d="M7085 3054 c11 -8 71 -40 133 -71 61 -31 112 -59 112 -63 0 -3 30
-21 68 -40 109 -53 139 -63 145 -47 3 9 13 7 36 -6 17 -10 31 -14 31 -8 0 5
-8 12 -17 15 -10 3 -1 4 20 3 20 -2 37 1 37 5 0 4 -32 8 -71 8 -60 0 -70 2
-65 15 4 11 0 15 -12 13 -13 -2 -16 3 -14 20 2 12 -2 22 -7 22 -6 0 -11 -6
-11 -12 0 -10 -2 -10 -8 0 -11 17 -9 46 3 49 25 7 46 -9 41 -30 -3 -12 -3 -16
0 -9 3 6 15 12 27 12 20 0 20 0 -3 25 -13 14 -21 28 -17 31 4 4 14 -2 24 -13
10 -10 14 -13 9 -6 -5 7 -5 13 0 13 14 0 -48 35 -83 48 -20 6 -33 7 -33 1 0
-5 5 -9 11 -9 5 0 7 -6 3 -12 -6 -10 -5 -10 7 -1 20 16 57 -7 44 -27 -6 -10
-11 -9 -21 5 -12 16 -16 15 -69 -13 l-57 -31 -128 65 c-122 61 -179 82 -135
48z"/>
<path d="M7660 3041 c0 -5 7 -12 16 -15 14 -5 15 -4 4 9 -14 17 -20 19 -20 6z"/>
<path d="M7281 3037 c2 -1 13 -9 24 -17 19 -14 19 -14 6 3 -7 9 -18 17 -24 17
-6 0 -8 -1 -6 -3z"/>
<path d="M7719 3023 c15 -29 24 -34 41 -22 13 7 13 9 1 9 -8 0 -23 8 -34 18
-19 16 -20 16 -8 -5z"/>
<path d="M6437 3019 c7 -7 15 -10 18 -7 3 3 -2 9 -12 12 -14 6 -15 5 -6 -5z"/>
<path d="M7340 3026 c0 -2 7 -7 16 -10 8 -3 12 -2 9 4 -6 10 -25 14 -25 6z"/>
<path d="M7805 3010 c-4 -6 -2 -9 4 -8 5 2 16 -5 24 -16 10 -13 20 -16 36 -11
20 6 19 8 -16 26 -44 22 -40 22 -48 9z"/>
<path d="M7927 3014 c-9 -9 4 -34 18 -34 7 0 20 -11 29 -25 9 -14 22 -25 29
-25 7 1 5 6 -5 14 -10 7 -18 23 -18 35 0 16 -6 21 -26 21 -14 0 -23 4 -19 10
7 11 2 14 -8 4z"/>
<path d="M6920 2980 c14 -11 28 -20 31 -20 4 0 43 -20 88 -45 45 -25 86 -45
91 -45 22 0 8 18 -27 33 -72 32 -123 63 -116 72 5 4 2 5 -5 1 -7 -4 -24 -1
-37 8 -35 23 -55 19 -25 -4z"/>
<path d="M7590 2990 c0 -5 5 -10 11 -10 5 0 7 5 4 10 -3 6 -8 10 -11 10 -2 0
-4 -4 -4 -10z"/>
<path d="M8244 2985 c21 -16 32 -13 21 4 -3 6 -14 11 -23 11 -15 -1 -15 -2 2
-15z"/>
<path d="M9085 2980 c3 -5 8 -10 11 -10 2 0 4 5 4 10 0 6 -5 10 -11 10 -5 0
-7 -4 -4 -10z"/>
<path d="M7670 2976 c0 -2 7 -7 16 -10 8 -3 12 -2 9 4 -6 10 -25 14 -25 6z"/>
<path d="M8024 2971 c4 -6 16 -16 28 -22 15 -8 18 -8 14 0 -4 6 -16 16 -28 22
-15 8 -18 8 -14 0z"/>
<path d="M7920 2966 c0 -2 7 -7 16 -10 8 -3 12 -2 9 4 -6 10 -25 14 -25 6z"/>
<path d="M7593 2953 c9 -2 15 -8 12 -13 -2 -4 9 -13 25 -20 17 -7 30 -19 30
-26 0 -8 10 -14 23 -14 13 0 29 -6 36 -12 10 -11 14 -10 21 3 8 15 15 14 60
-9 40 -19 56 -23 73 -15 25 11 64 0 109 -30 34 -23 57 -13 32 14 -9 10 -23 19
-30 19 -7 0 -25 12 -41 28 -29 29 -44 34 -55 18 -4 -6 -16 -5 -33 2 -15 7 -31
10 -36 6 -5 -3 -25 4 -44 15 -20 12 -37 16 -40 10 -4 -5 -11 -7 -16 -4 -5 3
-6 -1 -3 -9 4 -10 0 -14 -15 -13 -12 1 -21 5 -21 9 0 4 -9 8 -20 8 -11 0 -25
9 -32 20 -7 11 -22 19 -33 19 -17 -1 -17 -2 -2 -6z"/>
<path d="M7740 2956 c0 -2 7 -7 16 -10 8 -3 12 -2 9 4 -6 10 -25 14 -25 6z"/>
<path d="M8030 2920 c0 -6 7 -10 15 -10 8 0 15 2 15 4 0 2 -7 6 -15 10 -8 3
-15 1 -15 -4z"/>
<path d="M8246 2916 c6 -15 34 -30 34 -18 0 4 -9 13 -20 19 -16 11 -18 10 -14
-1z"/>
<path d="M7520 2906 c0 -2 7 -6 15 -10 8 -3 15 -1 15 4 0 6 -7 10 -15 10 -8 0
-15 -2 -15 -4z"/>
<path d="M7596 2896 c3 -9 9 -16 13 -17 3 0 14 -2 24 -4 13 -2 17 2 15 13 -2
10 -15 18 -31 20 -21 3 -26 0 -21 -12z"/>
<path d="M8010 2890 c0 -5 5 -10 11 -10 5 0 7 5 4 10 -3 6 -8 10 -11 10 -2 0
-4 -4 -4 -10z"/>
<path d="M8079 2841 c10 -18 41 -41 55 -41 10 0 -28 41 -47 52 -16 8 -17 7 -8
-11z"/>
<path d="M8370 2845 c7 -8 17 -12 22 -9 6 4 14 1 18 -6 5 -9 9 -9 14 -1 4 6
-4 15 -19 21 -38 14 -50 13 -35 -5z"/>
<path d="M9370 2850 c8 -5 20 -10 25 -10 6 0 3 5 -5 10 -8 5 -19 10 -25 10 -5
0 -3 -5 5 -10z"/>
<path d="M7632 2811 c-9 -5 -1 -13 27 -25 37 -17 61 -16 61 4 0 8 -12 13 -60
26 -8 2 -21 0 -28 -5z"/>
<path d="M8070 2810 c0 -5 5 -10 10 -10 6 0 10 5 10 10 0 6 -4 10 -10 10 -5 0
-10 -4 -10 -10z"/>
<path d="M8938 2793 c7 -3 16 -2 19 1 4 3 -2 6 -13 5 -11 0 -14 -3 -6 -6z"/>
<path d="M7741 2781 c-14 -9 10 -31 52 -49 30 -13 34 -6 12 25 -16 23 -47 34
-64 24z"/>
<path d="M7940 2780 c0 -5 12 -10 26 -10 14 0 23 4 19 10 -3 6 -15 10 -26 10
-10 0 -19 -4 -19 -10z"/>
<path d="M8020 2771 c0 -16 14 -20 86 -26 37 -4 72 -9 76 -11 4 -3 5 2 2 10
-7 18 -28 26 -82 32 -29 2 -41 0 -36 -7 4 -8 1 -8 -14 0 -25 13 -32 14 -32 2z"/>
<path d="M8199 2774 c7 -4 22 -15 32 -25 20 -20 85 -27 74 -8 -4 6 -13 8 -21
5 -7 -3 -20 1 -28 9 -7 8 -27 17 -42 20 -16 3 -23 2 -15 -1z"/>
<path d="M7820 2758 c0 -4 13 -8 28 -8 16 0 32 -3 35 -7 11 -10 58 -13 52 -2
-10 15 12 10 25 -6 7 -8 27 -15 44 -15 l31 1 -40 20 c-22 11 -46 19 -55 18 -8
-1 -17 -1 -20 0 -19 6 -100 5 -100 -1z"/>
<path d="M8459 2750 c24 -11 46 -20 50 -20 12 1 -64 39 -79 39 -8 0 5 -8 29
-19z"/>
<path d="M9100 2761 c0 -10 30 -24 37 -17 3 2 -5 9 -16 16 -12 6 -21 7 -21 1z"/>
<path d="M8630 2745 c7 -8 19 -15 27 -15 12 0 12 2 -1 15 -8 8 -20 15 -27 15
-9 0 -8 -4 1 -15z"/>
<path d="M8349 2726 c24 -32 33 -36 97 -40 23 -2 55 -13 72 -24 33 -24 47 -28
36 -10 -4 6 -3 9 2 5 5 -3 29 -8 53 -12 31 -4 41 -3 36 5 -6 10 -34 24 -57 29
-4 1 -29 8 -55 16 -27 7 -75 17 -108 20 -33 4 -69 15 -79 24 -16 13 -16 11 3
-13z"/>
<path d="M8109 2722 c11 -21 28 -27 60 -23 8 2 10 -3 5 -11 -4 -7 -4 -10 1 -6
4 4 16 3 26 -3 13 -6 19 -6 19 1 0 5 7 10 15 10 8 0 15 -5 15 -12 0 -6 3 -9 6
-5 3 3 29 -3 56 -14 28 -11 67 -21 87 -23 20 -3 52 -7 71 -11 l35 -6 -27 16
c-25 14 -70 26 -153 42 -16 3 -38 12 -47 20 -9 8 -21 13 -25 10 -9 -5 -101 14
-137 28 -16 7 -17 6 -7 -13z"/>
<path d="M8850 2712 c0 -12 19 -26 26 -19 2 2 -2 10 -11 17 -9 8 -15 8 -15 2z"/>
<path d="M7902 2691 c-5 -3 19 -16 54 -27 35 -12 64 -18 64 -13 0 15 -103 50
-118 40z"/>
<path d="M8770 2686 c0 -2 9 -6 20 -9 11 -3 18 -1 14 4 -5 9 -34 13 -34 5z"/>
<path d="M8030 2661 c0 -10 93 -50 103 -44 14 8 -4 23 -28 23 -13 0 -26 4 -29
9 -7 11 -46 21 -46 12z"/>
<path d="M8236 2652 c-7 -11 82 -54 95 -46 15 9 6 -20 -11 -32 -8 -7 -21 -10
-30 -7 -8 3 -4 -4 10 -16 25 -21 47 -22 43 -3 -2 6 4 9 12 6 11 -5 13 -2 9 11
-6 15 -4 15 14 4 22 -14 19 -41 -4 -32 -8 3 -14 1 -14 -3 0 -13 102 -68 130
-70 14 -1 17 0 8 3 -19 5 -25 23 -7 23 5 0 8 4 4 9 -3 5 0 13 6 17 7 4 9 3 5
-4 -4 -7 1 -10 14 -9 11 1 20 4 20 7 0 10 -41 31 -51 25 -5 -4 -8 -1 -7 7 2 7
-3 12 -10 10 -8 -1 -11 2 -6 9 5 9 2 10 -9 6 -10 -3 -17 -2 -17 2 0 12 -60 32
-71 25 -5 -3 -9 1 -9 9 0 17 -27 30 -42 20 -6 -3 -8 -1 -5 4 4 6 -7 16 -25 22
-37 13 -45 14 -52 3z"/>
<path d="M9123 2645 c0 -8 4 -12 9 -9 5 3 6 10 3 15 -9 13 -12 11 -12 -6z"/>
<path d="M7934 2631 c14 -15 23 -18 31 -11 9 8 14 6 19 -5 3 -9 11 -13 17 -9
9 5 7 11 -6 20 -10 7 -22 11 -26 8 -5 -3 -19 0 -31 7 -23 12 -23 12 -4 -10z"/>
<path d="M9226 2613 c-6 -14 -5 -15 5 -6 7 7 10 15 7 18 -3 3 -9 -2 -12 -12z"/>
<path d="M8586 2611 c5 -5 23 -13 39 -19 17 -5 39 -14 50 -18 18 -7 18 -6 -2
15 -14 15 -36 25 -59 27 -21 2 -33 0 -28 -5z"/>
<path d="M8040 2600 c0 -5 12 -10 28 -10 21 0 24 2 12 10 -20 13 -40 13 -40 0z"/>
<path d="M8220 2600 c-10 -6 -11 -10 -2 -10 21 0 27 -2 37 -10 12 -9 51 -7 61
3 4 4 -5 7 -20 7 -16 0 -25 4 -21 10 8 13 -35 13 -55 0z"/>
<path d="M8690 2600 c0 -5 12 -10 28 -11 l27 -1 -25 -8 c-23 -7 -23 -8 -3 -9
12 -1 28 -4 37 -7 13 -5 13 -2 3 20 -9 19 -20 26 -39 26 -16 0 -28 -4 -28 -10z"/>
<path d="M8940 2595 c33 -19 49 -19 24 0 -10 8 -26 14 -34 14 -9 0 -4 -6 10
-14z"/>
<path d="M8479 2577 c5 -5 21 -11 35 -12 14 -2 30 -6 35 -10 6 -3 11 -2 11 4
0 15 -20 24 -57 26 -20 0 -29 -3 -24 -8z"/>
<path d="M7844 2568 c-3 -4 1 -8 10 -8 8 0 17 -6 19 -12 3 -7 6 -4 6 8 1 20
-24 29 -35 12z"/>
<path d="M8005 2570 c27 -12 43 -12 25 0 -8 5 -22 9 -30 9 -10 0 -8 -3 5 -9z"/>
<path d="M8828 2573 c7 -3 16 -2 19 1 4 3 -2 6 -13 5 -11 0 -14 -3 -6 -6z"/>
<path d="M8594 2554 c11 -8 30 -14 43 -14 13 0 23 -4 23 -10 0 -5 9 -10 20
-10 27 0 25 16 -2 23 -13 3 -41 10 -63 16 -36 9 -38 8 -21 -5z"/>
<path d="M8780 2539 c0 -5 -7 -9 -17 -9 -9 0 -14 -2 -11 -5 3 -3 36 -8 72 -10
37 -2 71 -7 76 -10 6 -4 10 -4 10 0 0 7 -42 23 -91 34 -23 5 -39 5 -39 0z"/>
<path d="M9421 2537 c9 -7 14 -19 12 -27 -4 -13 -3 -13 6 0 15 22 14 27 -11
33 -20 5 -21 4 -7 -6z"/>
<path d="M9040 2532 c0 -4 19 -8 41 -9 28 -1 37 2 28 8 -18 11 -69 12 -69 1z"/>
<path d="M9135 2522 c6 -6 24 -13 40 -17 21 -4 25 -3 15 3 -24 15 -67 26 -55
14z"/>
<path d="M7861 2484 c0 -11 3 -14 6 -6 3 7 2 16 -1 19 -3 4 -6 -2 -5 -13z"/>
<path d="M8925 2490 c3 -5 13 -10 21 -10 8 0 12 5 9 10 -3 6 -13 10 -21 10 -8
0 -12 -4 -9 -10z"/>
<path d="M9228 2493 c7 -3 16 -2 19 1 4 3 -2 6 -13 5 -11 0 -14 -3 -6 -6z"/>
<path d="M8980 2486 c0 -10 28 -13 41 -5 10 6 7 9 -13 9 -16 0 -28 -2 -28 -4z"/>
<path d="M8727 2456 c-4 -9 0 -13 11 -11 9 2 23 4 30 4 20 1 3 21 -18 21 -10
0 -20 -6 -23 -14z"/>
<path d="M9350 2460 c0 -5 5 -10 10 -10 6 0 10 5 10 10 0 6 -4 10 -10 10 -5 0
-10 -4 -10 -10z"/>
<path d="M8863 2453 c9 -2 23 -2 30 0 6 3 -1 5 -18 5 -16 0 -22 -2 -12 -5z"/>
<path d="M9027 2453 c-6 -10 79 -44 119 -49 39 -4 17 21 -29 33 -23 6 -52 14
-63 18 -12 4 -24 3 -27 -2z"/>
<path d="M9310 2443 c8 -3 32 -14 53 -25 20 -10 37 -15 37 -11 0 9 -79 43 -95
42 -6 0 -3 -3 5 -6z"/>
<path d="M9490 2441 c0 -5 7 -11 15 -15 8 -3 15 -1 15 3 0 5 -7 11 -15 15 -8
3 -15 1 -15 -3z"/>
<path d="M8988 2413 c6 -2 12 -11 12 -19 0 -8 4 -14 9 -14 5 0 7 9 4 20 -3 11
-13 20 -22 19 -10 0 -11 -2 -3 -6z"/>
<path d="M9870 2405 c7 -9 15 -13 17 -11 7 7 -7 26 -19 26 -6 0 -6 -6 2 -15z"/>
<path d="M9050 2391 c0 -10 19 -25 25 -20 1 2 -3 10 -11 17 -8 7 -14 8 -14 3z"/>
<path d="M9090 2381 c0 -6 4 -13 10 -16 6 -3 7 1 4 9 -7 18 -14 21 -14 7z"/>
<path d="M9694 2365 c11 -8 24 -15 30 -15 5 0 1 7 -10 15 -10 8 -23 14 -29 14
-5 0 -1 -6 9 -14z"/>
<path d="M9005 2330 c10 -11 20 -20 23 -20 3 0 -3 9 -13 20 -10 11 -20 20 -23
20 -3 0 3 -9 13 -20z"/>
<path d="M9030 2341 c0 -6 4 -13 10 -16 6 -3 7 1 4 9 -7 18 -14 21 -14 7z"/>
<path d="M9830 2335 c7 -8 17 -15 22 -15 5 0 3 7 -6 15 -8 8 -18 15 -22 15 -3
0 -1 -7 6 -15z"/>
<path d="M9220 2332 c0 -4 10 -13 21 -21 19 -11 21 -11 15 4 -3 9 -6 19 -6 21
0 2 -7 4 -15 4 -8 0 -15 -3 -15 -8z"/>
<path d="M9420 2336 c0 -2 11 -6 25 -8 13 -3 22 -1 19 3 -5 9 -44 13 -44 5z"/>
<path d="M9560 2330 c0 -5 5 -10 11 -10 5 0 7 5 4 10 -3 6 -8 10 -11 10 -2 0
-4 -4 -4 -10z"/>
<path d="M9144 2305 c11 -8 27 -15 35 -15 13 1 12 4 -3 15 -11 8 -27 15 -35
15 -13 -1 -12 -4 3 -15z"/>
<path d="M9285 2310 c-3 -4 9 -13 27 -19 37 -13 38 -13 38 -3 0 11 -59 32 -65
22z"/>
<path d="M9400 2302 c0 -5 6 -9 13 -9 6 0 21 -4 32 -7 13 -5 12 -2 -5 8 -29
17 -40 20 -40 8z"/>
<path d="M10562 2286 c7 -8 15 -12 17 -11 5 6 -10 25 -20 25 -5 0 -4 -6 3 -14z"/>
<path d="M9320 2246 c0 -2 7 -7 16 -10 8 -3 12 -2 9 4 -6 10 -25 14 -25 6z"/>
<path d="M9730 2241 c0 -5 5 -13 10 -16 6 -3 10 -2 10 4 0 5 -4 13 -10 16 -5
3 -10 2 -10 -4z"/>
<path d="M9442 2231 c-11 -6 -9 -9 6 -13 15 -4 19 -2 15 8 -6 16 -4 16 -21 5z"/>
<path d="M9890 2221 c0 -6 4 -13 10 -16 6 -3 7 1 4 9 -7 18 -14 21 -14 7z"/>
<path d="M9310 2216 c0 -2 7 -7 16 -10 8 -3 12 -2 9 4 -6 10 -25 14 -25 6z"/>
<path d="M10300 2216 c0 -2 9 -6 20 -9 11 -3 18 -1 14 4 -5 9 -34 13 -34 5z"/>
<path d="M10517 2199 c7 -7 15 -10 18 -7 3 3 -2 9 -12 12 -14 6 -15 5 -6 -5z"/>
<path d="M9440 2195 c0 -2 10 -10 23 -16 20 -11 21 -11 8 4 -13 16 -31 23 -31
12z"/>
<path d="M9970 2190 c8 -5 20 -10 25 -10 6 0 3 5 -5 10 -8 5 -19 10 -25 10 -5
0 -3 -5 5 -10z"/>
<path d="M9070 2156 c0 -3 9 -10 20 -16 11 -6 20 -8 20 -6 0 3 -9 10 -20 16
-11 6 -20 8 -20 6z"/>
<path d="M9770 2140 c8 -5 20 -10 25 -10 6 0 3 5 -5 10 -8 5 -19 10 -25 10 -5
0 -3 -5 5 -10z"/>
<path d="M9468 2133 c6 -2 18 -2 25 0 6 3 1 5 -13 5 -14 0 -19 -2 -12 -5z"/>
<path d="M9547 2129 c7 -7 15 -10 18 -7 3 3 -2 9 -12 12 -14 6 -15 5 -6 -5z"/>
<path d="M9835 2130 c3 -5 18 -10 32 -10 32 0 25 9 -12 16 -17 3 -24 1 -20 -6z"/>
<path d="M9860 2092 c0 -5 7 -13 16 -16 10 -4 14 -1 12 6 -5 15 -28 23 -28 10z"/>
<path d="M10493 2094 c13 -14 101 -33 116 -25 8 5 -6 11 -38 15 -28 4 -59 10
-69 13 -9 3 -13 2 -9 -3z"/>
<path d="M10140 2080 c0 -5 5 -10 11 -10 5 0 7 5 4 10 -3 6 -8 10 -11 10 -2 0
-4 -4 -4 -10z"/>
<path d="M10300 2080 c8 -5 22 -10 30 -10 13 0 13 1 0 10 -8 5 -22 10 -30 10
-13 0 -13 -1 0 -10z"/>
<path d="M8727 2073 c-4 -3 -7 -11 -7 -17 0 -6 5 -5 12 2 6 6 9 14 7 17 -3 3
-9 2 -12 -2z"/>
<path d="M8860 2066 c0 -3 9 -10 20 -16 11 -6 20 -8 20 -6 0 3 -9 10 -20 16
-11 6 -20 8 -20 6z"/>
<path d="M10635 2050 c3 -5 8 -10 11 -10 2 0 4 5 4 10 0 6 -5 10 -11 10 -5 0
-7 -4 -4 -10z"/>
<path d="M9918 2043 c7 -3 16 -2 19 1 4 3 -2 6 -13 5 -11 0 -14 -3 -6 -6z"/>
<path d="M10390 2040 c0 -5 5 -10 11 -10 5 0 7 5 4 10 -3 6 -8 10 -11 10 -2 0
-4 -4 -4 -10z"/>
<path d="M10875 1998 c16 -6 36 -17 43 -25 7 -7 19 -13 25 -13 25 0 -30 38
-63 44 l-35 6 30 -12z"/>
<path d="M10395 1990 c3 -5 11 -10 16 -10 6 0 7 5 4 10 -3 6 -11 10 -16 10 -6
0 -7 -4 -4 -10z"/>
<path d="M10054 1971 c21 -23 26 -26 26 -11 0 5 -10 15 -22 21 -23 12 -23 12
-4 -10z"/>
<path d="M10660 1976 c0 -2 7 -7 16 -10 8 -3 12 -2 9 4 -6 10 -25 14 -25 6z"/>
<path d="M10115 1960 c3 -5 14 -10 23 -10 15 0 15 2 2 10 -20 13 -33 13 -25 0z"/>
<path d="M10288 1963 c7 -3 16 -2 19 1 4 3 -2 6 -13 5 -11 0 -14 -3 -6 -6z"/>
<path d="M10243 1923 c9 -2 25 -2 35 0 9 3 1 5 -18 5 -19 0 -27 -2 -17 -5z"/>
<path d="M10340 1926 c0 -2 7 -9 15 -16 12 -10 15 -10 15 4 0 9 -7 16 -15 16
-8 0 -15 -2 -15 -4z"/>
<path d="M10420 1876 c0 -2 8 -10 18 -17 15 -13 16 -12 3 4 -13 16 -21 21 -21
13z"/>
<path d="M10840 1870 c0 -5 5 -10 11 -10 5 0 7 5 4 10 -3 6 -8 10 -11 10 -2 0
-4 -4 -4 -10z"/>
<path d="M9225 1840 c-3 -5 -2 -10 4 -10 5 0 13 5 16 10 3 6 2 10 -4 10 -5 0
-13 -4 -16 -10z"/>
<path d="M10530 1840 c20 -13 33 -13 25 0 -3 6 -14 10 -23 10 -15 0 -15 -2 -2
-10z"/>
<path d="M10440 1820 c0 -5 5 -10 11 -10 5 0 7 5 4 10 -3 6 -8 10 -11 10 -2 0
-4 -4 -4 -10z"/>
<path d="M10580 1816 c0 -2 8 -10 18 -17 15 -13 16 -12 3 4 -13 16 -21 21 -21
13z"/>
<path d="M10495 1800 c3 -5 8 -10 11 -10 2 0 4 5 4 10 0 6 -5 10 -11 10 -5 0
-7 -4 -4 -10z"/>
<path d="M10583 1769 c6 -10 19 -19 28 -19 8 0 26 -11 38 -24 13 -13 31 -26
42 -29 40 -11 -1 31 -60 61 -50 25 -58 27 -48 11z"/>
<path d="M9340 1756 c0 -2 7 -6 15 -10 8 -3 15 -1 15 4 0 6 -7 10 -15 10 -8 0
-15 -2 -15 -4z"/>
<path d="M9450 1712 c0 -10 22 -32 32 -32 15 0 8 15 -12 28 -11 7 -20 9 -20 4z"/>
<path d="M10830 1706 c0 -2 8 -10 18 -17 15 -13 16 -12 3 4 -13 16 -21 21 -21
13z"/>
<path d="M9520 1668 c0 -10 68 -41 79 -36 4 2 -12 12 -36 24 -24 12 -43 17
-43 12z"/>
<path d="M9647 1628 l-27 -22 62 -33 c72 -38 68 -37 68 -18 0 8 -15 22 -32 31
-52 26 -60 35 -47 50 17 20 7 17 -24 -8z"/>
<path d="M9764 1543 c10 -11 37 -12 30 -2 -3 5 -12 9 -21 9 -9 0 -13 -3 -9 -7z"/>
<path d="M10860 1490 c8 -5 22 -10 30 -10 13 0 13 1 0 10 -8 5 -22 10 -30 10
-13 0 -13 -1 0 -10z"/>
<path d="M10798 1373 c7 -3 16 -2 19 1 4 3 -2 6 -13 5 -11 0 -14 -3 -6 -6z"/>
<path d="M10957 1369 c7 -7 15 -10 18 -7 3 3 -2 9 -12 12 -14 6 -15 5 -6 -5z"/>
<path d="M10835 1202 c16 -13 67 -33 61 -23 -3 5 -20 14 -38 20 -18 6 -28 8
-23 3z"/>
<path d="M10930 1141 c0 -5 7 -12 16 -15 24 -9 28 -7 14 9 -14 17 -30 20 -30
6z"/>
<path d="M10750 762 c0 -3 7 -14 17 -24 10 -12 12 -18 4 -18 -7 0 -10 -4 -6
-10 3 -5 14 -2 25 7 13 12 16 20 9 29 -11 13 -49 26 -49 16z"/>
</g>
</svg>
